<svg width="40" height="40" viewBox="0 0 40 40" fill="none" xmlns="http://www.w3.org/2000/svg">
<path d="M19.9997 25.4167C22.9912 25.4167 25.4163 22.9916 25.4163 20C25.4163 17.0085 22.9912 14.5834 19.9997 14.5834C17.0081 14.5834 14.583 17.0085 14.583 20C14.583 22.9916 17.0081 25.4167 19.9997 25.4167Z" stroke="white" stroke-width="2.5" stroke-linecap="round" stroke-linejoin="round"/>
<path d="M20.0003 32.0833C13.3269 32.0833 7.91699 26.6735 7.91699 20C7.91699 13.3265 13.3269 7.91663 20.0003 7.91663C31.3545 7.91663 32.0837 15.2083 32.0837 20V22.0833C32.0837 23.9243 30.5913 25.4166 28.7503 25.4166C26.9093 25.4166 25.417 23.9243 25.417 22.0833V14.5833" stroke="white" stroke-width="2.5" stroke-linecap="round" stroke-linejoin="round"/>
</svg>
