<svg width="141" height="45" viewBox="0 0 141 45" fill="none" xmlns="http://www.w3.org/2000/svg">
<path d="M74.1168 11.4278C74.1168 13.0023 72.8484 14.2706 71.2734 14.2706C69.6991 14.2706 68.4308 13.0023 68.4308 11.4278C68.4308 9.85326 69.6553 8.58493 71.2734 8.58493C72.8918 8.62868 74.1168 9.89701 74.1168 11.4278ZM62.3952 17.1572C62.3952 17.4196 62.3952 17.857 62.3952 17.857C62.3952 17.857 61.0393 16.1076 58.1527 16.1076C53.3855 16.1076 49.6679 19.7377 49.6679 24.7673C49.6679 29.7533 53.3417 33.4272 58.1527 33.4272C61.0831 33.4272 62.3952 31.634 62.3952 31.634V32.3775C62.3952 32.7274 62.6576 32.9898 63.0074 32.9898H66.5501V16.5449C66.5501 16.5449 63.3136 16.5449 63.0074 16.5449C62.6576 16.5449 62.3952 16.8511 62.3952 17.1572ZM62.3952 27.6977C61.7391 28.6599 60.427 29.4909 58.8525 29.4909C56.0534 29.4909 53.9103 27.7414 53.9103 24.7673C53.9103 21.7933 56.0534 20.0439 58.8525 20.0439C60.3833 20.0439 61.7829 20.9186 62.3952 21.8371V27.6977ZM69.1743 16.5449H73.3727V32.9898H69.1743V16.5449ZM131.892 16.1076C129.006 16.1076 127.65 17.857 127.65 17.857V8.62868H123.451V32.9898C123.451 32.9898 126.688 32.9898 126.993 32.9898C127.343 32.9898 127.606 32.6836 127.606 32.3775V31.634C127.606 31.634 128.962 33.4272 131.849 33.4272C136.616 33.4272 140.333 29.7533 140.333 24.7673C140.333 19.7814 136.616 16.1076 131.892 16.1076ZM131.193 29.4472C129.574 29.4472 128.306 28.6161 127.65 27.654V21.7933C128.306 20.9186 129.705 20.0001 131.193 20.0001C133.991 20.0001 136.135 21.7496 136.135 24.7236C136.135 27.6977 133.991 29.4472 131.193 29.4472ZM121.265 23.2366V33.0336H117.065V23.7177C117.065 21.006 116.191 19.9126 113.829 19.9126C112.561 19.9126 111.248 20.5687 110.417 21.5309V32.9898H106.219V16.5449H109.543C109.893 16.5449 110.155 16.8511 110.155 17.1572V17.857C111.38 16.5887 112.998 16.1076 114.616 16.1076C116.453 16.1076 117.984 16.6324 119.209 17.6821C120.696 18.9067 121.265 20.4812 121.265 23.2366ZM96.0282 16.1076C93.1421 16.1076 91.7862 17.857 91.7862 17.857V8.62868H87.5876V32.9898C87.5876 32.9898 90.8237 32.9898 91.1296 32.9898C91.4796 32.9898 91.7421 32.6836 91.7421 32.3775V31.634C91.7421 31.634 93.098 33.4272 95.9848 33.4272C100.752 33.4272 104.47 29.7533 104.47 24.7673C104.513 19.7814 100.796 16.1076 96.0282 16.1076ZM95.3289 29.4472C93.7105 29.4472 92.4421 28.6161 91.7862 27.654V21.7933C92.4421 20.9186 93.8414 20.0001 95.3289 20.0001C98.1275 20.0001 100.271 21.7496 100.271 24.7236C100.271 27.6977 98.1275 29.4472 95.3289 29.4472ZM83.9574 16.1076C85.2258 16.1076 85.8817 16.3262 85.8817 16.3262V20.2188C85.8817 20.2188 82.3824 19.0379 80.1956 21.5309V33.0336H75.997V16.5449C75.997 16.5449 79.2338 16.5449 79.5397 16.5449C79.8897 16.5449 80.1522 16.8511 80.1522 17.1572V17.857C80.9397 16.9385 82.6449 16.1076 83.9574 16.1076ZM40.352 31.5027C40.1333 30.9779 39.9147 30.4093 39.696 29.9282C39.3461 29.141 38.9962 28.3975 38.6901 27.6977L38.6463 27.654C35.6285 21.0935 32.392 14.4456 28.9806 7.88514L28.8494 7.62271C28.4995 6.96666 28.1496 6.26688 27.7997 5.5671C27.3623 4.77985 26.925 3.94886 26.2252 3.1616C24.8257 1.41215 22.8138 0.449951 20.6707 0.449951C18.4839 0.449951 16.5158 1.41215 15.0724 3.07413C14.4164 3.86139 13.9353 4.69238 13.4979 5.47963C13.1481 6.17941 12.7981 6.87919 12.4483 7.53521L12.317 7.79764C8.94939 14.3581 5.66913 21.006 2.65132 27.5665L2.60758 27.654C2.30143 28.3538 1.95154 29.0972 1.60165 29.8845C1.38297 30.3656 1.16429 30.8904 0.945604 31.459C0.377032 33.0772 0.202086 34.6081 0.420768 36.1826C0.901868 39.4628 3.08869 42.2182 6.10649 43.4428C7.24363 43.9239 8.42453 44.1426 9.64911 44.1426C9.99904 44.1426 10.4364 44.0988 10.7863 44.055C12.2296 43.8801 13.7166 43.399 15.1599 42.568C16.9531 41.5621 18.6588 40.1188 20.5832 38.0194C22.5076 40.1188 24.2571 41.5621 26.0065 42.568C27.4498 43.399 28.9368 43.8801 30.3802 44.055C30.73 44.0988 31.1674 44.1426 31.5173 44.1426C32.7419 44.1426 33.9665 43.9239 35.0599 43.4428C38.1215 42.2182 40.2646 39.419 40.7457 36.1826C41.0956 34.6517 40.9206 33.121 40.352 31.5027ZM20.6269 33.777C18.2652 30.803 16.7344 28.0038 16.2096 25.6421C15.9909 24.6361 15.9471 23.7614 16.0784 22.9742C16.1658 22.2744 16.4283 21.6621 16.7782 21.1373C17.6092 19.9564 19.0087 19.2128 20.6269 19.2128C22.2452 19.2128 23.6885 19.9126 24.4757 21.1373C24.8257 21.6621 25.088 22.2744 25.1755 22.9742C25.3068 23.7614 25.263 24.6799 25.0443 25.6421C24.5195 27.9601 22.9887 30.7593 20.6269 33.777ZM38.0777 35.8326C37.7716 38.1069 36.2408 40.0751 34.0977 40.9498C33.0481 41.3871 31.9109 41.5184 30.7738 41.3871C29.6804 41.256 28.587 40.906 27.4498 40.25C25.8753 39.3753 24.3008 38.0194 22.4639 36.0076C25.3505 32.4649 27.1 29.2285 27.756 26.3418C28.0621 24.9861 28.1059 23.7614 27.9747 22.6243C27.7997 21.5309 27.4061 20.5249 26.7938 19.6502C25.438 17.6821 23.1637 16.5449 20.6269 16.5449C18.0903 16.5449 15.816 17.7258 14.4601 19.6502C13.8478 20.5249 13.4542 21.5309 13.2792 22.6243C13.1043 23.7614 13.1481 25.0298 13.4979 26.3418C14.154 29.2285 15.9471 32.5087 18.7901 36.0513C16.9969 38.0632 15.3786 39.419 13.8041 40.2937C12.6669 40.9498 11.5735 41.2997 10.4801 41.4309C9.29925 41.5621 8.1621 41.3871 7.15616 40.9935C5.01308 40.1188 3.48231 38.1507 3.17616 35.8764C3.04495 34.783 3.13242 33.6896 3.56978 32.4649C3.701 32.0276 3.91968 31.5902 4.13836 31.0654C4.44451 30.3656 4.7944 29.6221 5.14429 28.8786L5.18803 28.7911C8.20585 22.2744 11.4423 15.6264 14.81 9.15347L14.9412 8.89104C15.2911 8.235 15.641 7.53521 15.9909 6.87919C16.3408 6.17941 16.7344 5.52337 17.2155 4.95479C18.134 3.90512 19.3586 3.33655 20.7144 3.33655C22.0703 3.33655 23.2948 3.90512 24.2133 4.95479C24.6944 5.52337 25.088 6.17941 25.438 6.87919C25.7878 7.53521 26.1377 8.235 26.4876 8.89104L26.6189 9.15347C29.9428 15.6702 33.1793 22.3181 36.1971 28.8348V28.8786C36.547 29.5784 36.8531 30.3656 37.203 31.0654C37.4217 31.5902 37.6404 32.0276 37.7716 32.4649C38.1215 33.6021 38.2527 34.6955 38.0777 35.8326Z" fill="black"/>
</svg>
