<svg width="656" height="477" viewBox="0 0 656 477" fill="none" xmlns="http://www.w3.org/2000/svg">
<rect width="656" height="477" rx="24" fill="#FAFAFA"/>
<g filter="url(#filter0_d_2409_3388)">
<rect x="62" y="70" width="531" height="337" rx="24" fill="#171717"/>
<rect width="529" height="42" transform="translate(63 71)" fill="#313131"/>
<path d="M277.919 96.1424C276.368 96.1424 275.334 95.1682 275.334 93.6919C275.334 92.253 276.368 91.3987 278.219 91.3013L280.452 91.1889V90.4545C280.452 89.4353 279.83 88.8733 278.699 88.8733C277.762 88.8733 277.102 89.2704 276.893 89.9674H275.641C275.791 88.6634 277.05 87.7717 278.714 87.7717C280.625 87.7717 281.719 88.7459 281.719 90.4395V96.0075H280.505V94.786H280.377C279.988 95.6553 279.103 96.1424 277.919 96.1424ZM278.287 95.0258C279.516 95.0258 280.452 94.2089 280.452 93.1223V92.1631L278.361 92.2605C277.222 92.313 276.623 92.8001 276.623 93.6469C276.623 94.5012 277.26 95.0258 278.287 95.0258ZM288.357 87.7342C290.238 87.7342 291.467 89.0906 291.467 91.1814V92.6952C291.467 94.7785 290.238 96.1349 288.357 96.1349C287.18 96.1349 286.319 95.6328 285.966 94.741H285.824V98.7428H284.527V87.8691H285.786V89.1131H285.921C286.349 88.2138 287.195 87.7342 288.357 87.7342ZM287.99 88.9032C286.648 88.9032 285.794 89.8625 285.794 91.3613V92.5303C285.794 94.0366 286.648 94.9958 287.99 94.9958C289.331 94.9958 290.185 94.0291 290.185 92.5303V91.3613C290.185 89.8625 289.331 88.9032 287.99 88.9032ZM297.093 85.8757C296.494 85.8757 296.037 85.4261 296.037 84.8265C296.037 84.2345 296.494 83.7849 297.093 83.7849C297.693 83.7849 298.15 84.2345 298.15 84.8265C298.15 85.4261 297.693 85.8757 297.093 85.8757ZM300.503 96H293.766V94.9434H296.554V88.9257H293.788V87.8691H297.813V94.9434H300.503V96ZM306.055 96.045C305.313 96.045 304.698 95.423 304.698 94.6586C304.698 93.9017 305.313 93.2797 306.055 93.2797C306.796 93.2797 307.411 93.9017 307.411 94.6586C307.411 95.423 306.796 96.045 306.055 96.045ZM318.545 90.402H317.286C317.129 89.4503 316.335 88.8508 315.286 88.8508C313.869 88.8508 313.082 89.8175 313.082 91.5636V92.298C313.082 94.0441 313.869 95.0033 315.286 95.0033C316.335 95.0033 317.129 94.4113 317.286 93.482H318.545C318.343 95.1382 317.107 96.1499 315.308 96.1499C313.097 96.1499 311.808 94.7935 311.808 92.4629V91.3987C311.808 89.0681 313.097 87.7117 315.308 87.7117C317.107 87.7117 318.336 88.7309 318.545 90.402ZM320.927 96V84.6767H322.156V89.3079H322.261C322.688 88.2962 323.625 87.7267 324.869 87.7267C326.637 87.7267 327.597 88.7908 327.597 90.7318V96H326.323V91.054C326.323 89.5927 325.723 88.8957 324.449 88.8957C323.108 88.8957 322.201 89.8325 322.201 91.2189V96H320.927ZM335.561 93.9017H336.798C336.55 95.2431 335.261 96.1499 333.553 96.1499C331.32 96.1499 330.023 94.8085 330.023 92.4928V91.2713C330.023 89.1281 331.395 87.7192 333.463 87.7192C335.576 87.7192 336.82 89.1206 336.82 91.4737V92.268H331.282V92.5978C331.282 94.089 332.166 95.0483 333.553 95.0483C334.58 95.0483 335.336 94.6136 335.561 93.9017ZM333.455 88.8133C332.099 88.8133 331.282 89.7426 331.282 91.3013H335.561C335.561 89.7501 334.767 88.8133 333.455 88.8133ZM345.856 90.402H344.597C344.44 89.4503 343.646 88.8508 342.597 88.8508C341.18 88.8508 340.393 89.8175 340.393 91.5636V92.298C340.393 94.0441 341.18 95.0033 342.597 95.0033C343.646 95.0033 344.44 94.4113 344.597 93.482H345.856C345.654 95.1382 344.418 96.1499 342.619 96.1499C340.408 96.1499 339.119 94.7935 339.119 92.4629V91.3987C339.119 89.0681 340.408 87.7117 342.619 87.7117C344.418 87.7117 345.647 88.7309 345.856 90.402ZM350.216 91.5186L353.761 87.8691H355.305L352.15 91.0915L355.53 96H354.016L351.243 91.9608L350.119 93.0399V96H348.845V84.6767H350.119V91.5186H350.216ZM360.676 96.045C359.935 96.045 359.32 95.423 359.32 94.6586C359.32 93.9017 359.935 93.2797 360.676 93.2797C361.418 93.2797 362.033 93.9017 362.033 94.6586C362.033 95.423 361.418 96.045 360.676 96.045ZM368.394 85.6883H369.653V87.8916H372.95V88.9782H369.668V93.5645C369.668 94.4488 370.29 94.9284 371.436 94.9284C371.893 94.9284 372.71 94.9059 372.927 94.8834V95.9625C372.725 96 371.736 96.0375 371.346 96.0375C369.33 96.0375 368.394 95.2731 368.394 93.5795V88.9782H366.228V87.8916H368.394V85.6883ZM375.924 90.0648C375.924 88.6559 377.123 87.7117 378.914 87.7117C380.607 87.7117 381.754 88.5585 381.904 89.9149H380.675C380.525 89.203 379.843 88.7683 378.891 88.7683C377.857 88.7683 377.19 89.248 377.19 89.9899C377.19 90.6119 377.61 90.9641 378.629 91.1889L379.775 91.4512C381.357 91.8109 382.076 92.5003 382.076 93.6769C382.076 95.1757 380.825 96.1499 378.899 96.1499C377.055 96.1499 375.834 95.2881 375.691 93.8942H376.988C377.175 94.6436 377.894 95.0782 378.944 95.0782C380.053 95.0782 380.757 94.5762 380.757 93.7968C380.757 93.1523 380.36 92.8076 379.326 92.5753L378.119 92.298C376.65 91.9608 375.924 91.2189 375.924 90.0648Z" fill="#D1D5DB"/>
<rect x="82" y="86" width="12" height="12" rx="6" fill="white" fill-opacity="0.4"/>
<rect x="99" y="86" width="12" height="12" rx="6" fill="white" fill-opacity="0.4"/>
<rect x="115" y="86" width="12" height="12" rx="6" fill="white" fill-opacity="0.4"/>
<path d="M94.434 151V142.768H95.6708V144.217H95.777C96.2171 143.193 97.1579 142.616 98.4098 142.616C100.2 142.616 101.172 143.686 101.172 145.658V151H99.8818V145.985C99.8818 144.498 99.2748 143.8 97.9925 143.8C96.6344 143.8 95.7239 144.748 95.7239 146.152V151H94.434ZM109.243 148.876H110.495C110.245 150.234 108.94 151.152 107.21 151.152C104.949 151.152 103.636 149.794 103.636 147.449V146.212C103.636 144.042 105.025 142.616 107.119 142.616C109.258 142.616 110.518 144.035 110.518 146.417V147.221H104.911V147.555C104.911 149.065 105.806 150.036 107.21 150.036C108.249 150.036 109.016 149.596 109.243 148.876ZM107.111 143.724C105.738 143.724 104.911 144.664 104.911 146.243H109.243C109.243 144.672 108.439 143.724 107.111 143.724ZM102.249 162.768L100.481 171H99.2445L97.8484 164.581H97.7573L96.3612 171H95.1245L93.3566 162.768H94.6161L95.7315 169.369H95.8681L97.1959 162.775H98.4098L99.7376 169.369H99.8742L100.99 162.768H102.249Z" fill="white"/>
<path d="M137.633 161L136.685 157.859H132.876L131.92 161H130.561L134.09 150.051H135.516L139.044 161H137.633ZM134.765 151.66L133.225 156.713H136.336L134.803 151.66H134.765ZM144.536 152.631C146.44 152.631 147.685 154.004 147.685 156.121V157.654C147.685 159.763 146.44 161.137 144.536 161.137C143.345 161.137 142.472 160.628 142.116 159.725H141.971V163.777H140.659V152.768H141.934V154.027H142.07C142.503 153.117 143.36 152.631 144.536 152.631ZM144.164 153.815C142.806 153.815 141.941 154.786 141.941 156.303V157.487C141.941 159.012 142.806 159.983 144.164 159.983C145.522 159.983 146.387 159.005 146.387 157.487V156.303C146.387 154.786 145.522 153.815 144.164 153.815ZM153.381 150.749C152.774 150.749 152.312 150.294 152.312 149.687C152.312 149.088 152.774 148.632 153.381 148.632C153.988 148.632 154.451 149.088 154.451 149.687C154.451 150.294 153.988 150.749 153.381 150.749ZM156.834 161H150.013V159.93H152.835V153.837H150.035V152.768H154.11V159.93H156.834V161ZM162.705 159.961C164.162 159.961 165.087 159.088 165.125 157.677H166.476C166.476 159.794 164.943 161.228 162.705 161.228C160.133 161.228 158.638 159.49 158.638 156.501V154.551C158.638 151.561 160.133 149.824 162.705 149.824C165.011 149.824 166.438 151.227 166.483 153.564H165.125C165.08 152.085 164.101 151.091 162.697 151.091C160.929 151.091 160.004 152.282 160.004 154.551V156.501C160.004 158.769 160.929 159.961 162.705 159.961ZM168.295 161V149.535H169.54V154.224H169.646C170.078 153.2 171.027 152.623 172.286 152.623C174.077 152.623 175.048 153.701 175.048 155.666V161H173.758V155.992C173.758 154.513 173.151 153.807 171.861 153.807C170.503 153.807 169.585 154.756 169.585 156.159V161H168.295ZM183.112 158.876H184.364C184.114 160.234 182.809 161.152 181.079 161.152C178.818 161.152 177.505 159.794 177.505 157.449V156.212C177.505 154.042 178.893 152.616 180.988 152.616C183.127 152.616 184.387 154.035 184.387 156.417V157.221H178.78V157.555C178.78 159.065 179.675 160.036 181.079 160.036C182.118 160.036 182.884 159.596 183.112 158.876ZM180.98 153.724C179.607 153.724 178.78 154.664 178.78 156.243H183.112C183.112 154.672 182.308 153.724 180.98 153.724ZM193.536 155.332H192.261C192.102 154.369 191.297 153.762 190.235 153.762C188.801 153.762 188.004 154.74 188.004 156.508V157.252C188.004 159.02 188.801 159.991 190.235 159.991C191.297 159.991 192.102 159.391 192.261 158.451H193.536C193.331 160.127 192.079 161.152 190.258 161.152C188.02 161.152 186.715 159.778 186.715 157.419V156.341C186.715 153.982 188.02 152.608 190.258 152.608C192.079 152.608 193.323 153.64 193.536 155.332ZM197.95 156.463L201.539 152.768H203.102L199.908 156.03L203.33 161H201.797L198.99 156.91L197.851 158.003V161H196.562V149.535H197.851V156.463H197.95Z" fill="#00B51D"/>
<path d="M206.887 155.522C206.887 152.95 207.66 150.711 209.17 148.997H210.453C208.882 151.205 208.222 153.139 208.222 155.522C208.222 157.904 208.882 159.839 210.453 162.047H209.17C207.66 160.332 206.887 158.102 206.887 155.522ZM358.975 162.039H357.943C356.099 162.039 355.515 161.455 355.515 159.581V157.882C355.515 156.713 354.832 156.03 353.057 156.212V154.839C354.832 155.021 355.515 154.346 355.515 153.17V151.47C355.515 149.596 356.099 149.012 357.943 149.012H358.975V150.051H358.148C357.01 150.051 356.79 150.317 356.79 151.637V153.663C356.79 154.725 355.993 155.431 354.453 155.469V155.59C355.993 155.621 356.79 156.326 356.79 157.388V159.414C356.79 160.734 357.01 161 358.148 161H358.975V162.039Z" fill="#EEEEEE"/>
<path d="M218.448 154.991H217.067V150.051H218.448V154.991ZM223.599 161V149.535H224.843V154.224H224.949C225.382 153.2 226.33 152.623 227.59 152.623C229.38 152.623 230.351 153.701 230.351 155.666V161H229.062V155.992C229.062 154.513 228.455 153.807 227.165 153.807C225.807 153.807 224.888 154.756 224.888 156.159V161H223.599ZM238.415 158.876H239.667C239.417 160.234 238.112 161.152 236.382 161.152C234.121 161.152 232.808 159.794 232.808 157.449V156.212C232.808 154.042 234.197 152.616 236.291 152.616C238.431 152.616 239.69 154.035 239.69 156.417V157.221H234.083V157.555C234.083 159.065 234.978 160.036 236.382 160.036C237.421 160.036 238.188 159.596 238.415 158.876ZM236.283 153.724C234.91 153.724 234.083 154.664 234.083 156.243H238.415C238.415 154.672 237.611 153.724 236.283 153.724ZM249.006 161H242.185V159.93H245V150.605H242.208V149.535H246.29V159.93H249.006V161ZM258.223 161H251.402V159.93H254.217V150.605H251.425V149.535H255.507V159.93H258.223V161ZM263.844 161.152C261.666 161.152 260.278 159.733 260.278 157.51V156.265C260.278 154.042 261.666 152.623 263.844 152.623C266.021 152.623 267.41 154.042 267.41 156.265V157.51C267.41 159.733 266.021 161.152 263.844 161.152ZM263.844 153.762C262.433 153.762 261.552 154.763 261.552 156.379V157.388C261.552 159.012 262.433 160.006 263.844 160.006C265.255 160.006 266.135 159.012 266.135 157.388V156.379C266.135 154.763 265.255 153.762 263.844 153.762ZM277.075 156.743H269.047V155.545H277.075V156.743ZM281.444 161.144C279.873 161.144 278.826 160.158 278.826 158.663C278.826 157.206 279.873 156.341 281.747 156.243L284.008 156.129V155.385C284.008 154.353 283.378 153.784 282.233 153.784C281.284 153.784 280.617 154.186 280.404 154.892H279.137C279.289 153.572 280.564 152.669 282.248 152.669C284.183 152.669 285.291 153.655 285.291 155.37V161.008H284.061V159.771H283.932C283.538 160.651 282.642 161.144 281.444 161.144ZM281.815 160.014C283.06 160.014 284.008 159.187 284.008 158.086V157.115L281.891 157.214C280.738 157.267 280.131 157.76 280.131 158.618C280.131 159.483 280.776 160.014 281.815 160.014ZM292.011 152.631C293.916 152.631 295.16 154.004 295.16 156.121V157.654C295.16 159.763 293.916 161.137 292.011 161.137C290.82 161.137 289.948 160.628 289.591 159.725H289.447V163.777H288.134V152.768H289.409V154.027H289.546C289.978 153.117 290.835 152.631 292.011 152.631ZM291.64 153.815C290.282 153.815 289.417 154.786 289.417 156.303V157.487C289.417 159.012 290.282 159.983 291.64 159.983C292.998 159.983 293.863 159.005 293.863 157.487V156.303C293.863 154.786 292.998 153.815 291.64 153.815ZM300.857 150.749C300.25 150.749 299.787 150.294 299.787 149.687C299.787 149.088 300.25 148.632 300.857 148.632C301.464 148.632 301.927 149.088 301.927 149.687C301.927 150.294 301.464 150.749 300.857 150.749ZM304.309 161H297.488V159.93H300.311V153.837H297.511V152.768H301.585V159.93H304.309V161ZM313.944 156.743H305.916V155.545H313.944V156.743ZM323.282 161H315.649V159.824H318.882V151.569H318.76L315.627 153.595V152.168L318.889 150.051H320.202V159.824H323.282V161ZM329.055 154.991H327.674V150.051H329.055V154.991Z" fill="#FD4B28"/>
<path d="M336.891 163.519H335.67L336.61 158.587H338.318L336.891 163.519Z" fill="white"/>
<path d="M112.868 182V173.768H114.105V175.217H114.211C114.652 174.193 115.592 173.616 116.844 173.616C118.635 173.616 119.606 174.686 119.606 176.658V182H118.316V176.985C118.316 175.498 117.709 174.8 116.427 174.8C115.069 174.8 114.158 175.748 114.158 177.152V182H112.868ZM124.62 182.144C123.049 182.144 122.002 181.158 122.002 179.663C122.002 178.206 123.049 177.341 124.923 177.243L127.184 177.129V176.385C127.184 175.353 126.555 174.784 125.409 174.784C124.461 174.784 123.793 175.186 123.58 175.892H122.313C122.465 174.572 123.74 173.669 125.424 173.669C127.359 173.669 128.467 174.655 128.467 176.37V182.008H127.238V180.771H127.109C126.714 181.651 125.819 182.144 124.62 182.144ZM124.992 181.014C126.236 181.014 127.184 180.187 127.184 179.086V178.115L125.068 178.214C123.914 178.267 123.307 178.76 123.307 179.618C123.307 180.483 123.952 181.014 124.992 181.014ZM138.64 175.938V182H137.479V176.317C137.479 175.315 137.115 174.792 136.424 174.792C135.704 174.792 135.264 175.422 135.264 176.446V182H134.11V176.309C134.11 175.315 133.746 174.792 133.048 174.792C132.32 174.792 131.864 175.422 131.864 176.446V182H130.703V173.768H131.857V174.929H131.993C132.198 174.101 132.79 173.616 133.564 173.616C134.338 173.616 134.884 174.094 135.059 174.906H135.195C135.408 174.117 136.068 173.616 136.895 173.616C138.041 173.616 138.64 174.413 138.64 175.938ZM146.112 179.876H147.364C147.114 181.234 145.809 182.152 144.079 182.152C141.818 182.152 140.505 180.794 140.505 178.449V177.212C140.505 175.042 141.893 173.616 143.988 173.616C146.127 173.616 147.387 175.035 147.387 177.417V178.221H141.78V178.555C141.78 180.065 142.675 181.036 144.079 181.036C145.118 181.036 145.884 180.596 146.112 179.876ZM143.98 174.724C142.607 174.724 141.78 175.664 141.78 177.243H146.112C146.112 175.672 145.308 174.724 143.98 174.724Z" fill="#EEEEEE"/>
<path d="M153.106 176.218C152.355 176.218 151.733 175.581 151.733 174.815C151.733 174.048 152.355 173.411 153.106 173.411C153.857 173.411 154.479 174.048 154.479 174.815C154.479 175.581 153.857 176.218 153.106 176.218ZM153.106 182.046C152.355 182.046 151.733 181.416 151.733 180.642C151.733 179.876 152.355 179.246 153.106 179.246C153.857 179.246 154.479 179.876 154.479 180.642C154.479 181.416 153.857 182.046 153.106 182.046Z" fill="white"/>
<path d="M172.493 175.991H171.112V171.051H172.493V175.991ZM184.662 182H183.334V177.023H178.706V182H177.378V171.051H178.706V175.793H183.334V171.051H184.662V182ZM192.46 179.876H193.712C193.462 181.234 192.157 182.152 190.427 182.152C188.166 182.152 186.853 180.794 186.853 178.449V177.212C186.853 175.042 188.242 173.616 190.336 173.616C192.476 173.616 193.735 175.035 193.735 177.417V178.221H188.128V178.555C188.128 180.065 189.023 181.036 190.427 181.036C191.466 181.036 192.233 180.596 192.46 179.876ZM190.328 174.724C188.955 174.724 188.128 175.664 188.128 177.243H192.46C192.46 175.672 191.656 174.724 190.328 174.724ZM203.051 182H196.23V180.93H199.045V171.605H196.253V170.535H200.335V180.93H203.051V182ZM212.268 182H205.447V180.93H208.262V171.605H205.47V170.535H209.552V180.93H212.268V182ZM217.889 182.152C215.711 182.152 214.323 180.733 214.323 178.51V177.265C214.323 175.042 215.711 173.623 217.889 173.623C220.067 173.623 221.455 175.042 221.455 177.265V178.51C221.455 180.733 220.067 182.152 217.889 182.152ZM217.889 174.762C216.478 174.762 215.598 175.763 215.598 177.379V178.388C215.598 180.012 216.478 181.006 217.889 181.006C219.3 181.006 220.18 180.012 220.18 178.388V177.379C220.18 175.763 219.3 174.762 217.889 174.762ZM239.153 182L238.205 178.859H234.396L233.44 182H232.082L235.61 171.051H237.037L240.565 182H239.153ZM236.285 172.66L234.745 177.713H237.856L236.323 172.66H236.285ZM242.24 171.051H245.882C248.006 171.051 249.395 172.44 249.395 174.564C249.395 176.681 247.991 178.07 245.852 178.07H243.583V182H242.24V171.051ZM243.583 172.243V176.878H245.548C247.142 176.878 248.037 176.051 248.037 174.564C248.037 173.07 247.142 172.243 245.548 172.243H243.583ZM257.641 182H251.875V180.809H254.09V172.243H251.875V171.051H257.641V172.243H255.425V180.809H257.641V182ZM264.665 175.991H263.285V171.051H264.665V175.991Z" fill="#FD4B28"/>
<path d="M272.502 184.519H271.28L272.221 179.587H273.928L272.502 184.519Z" fill="white"/>
<path d="M115.403 202.144C113.832 202.144 112.785 201.158 112.785 199.663C112.785 198.206 113.832 197.341 115.706 197.243L117.967 197.129V196.385C117.967 195.353 117.337 194.784 116.192 194.784C115.243 194.784 114.576 195.186 114.363 195.892H113.096C113.248 194.572 114.523 193.669 116.207 193.669C118.142 193.669 119.249 194.655 119.249 196.37V202.008H118.02V200.771H117.891C117.497 201.651 116.601 202.144 115.403 202.144ZM115.774 201.014C117.019 201.014 117.967 200.187 117.967 199.086V198.115L115.85 198.214C114.697 198.267 114.09 198.76 114.09 199.618C114.09 200.483 114.735 201.014 115.774 201.014ZM128.884 196.332H127.609C127.45 195.369 126.646 194.762 125.583 194.762C124.149 194.762 123.353 195.74 123.353 197.508V198.252C123.353 200.02 124.149 200.991 125.583 200.991C126.646 200.991 127.45 200.391 127.609 199.451H128.884C128.679 201.127 127.427 202.152 125.606 202.152C123.368 202.152 122.063 200.778 122.063 198.419V197.341C122.063 194.982 123.368 193.608 125.606 193.608C127.427 193.608 128.672 194.64 128.884 196.332ZM133.268 191.56H134.543V193.79H137.881V194.891H134.558V199.534C134.558 200.429 135.188 200.915 136.349 200.915C136.811 200.915 137.638 200.892 137.858 200.869V201.962C137.654 202 136.652 202.038 136.257 202.038C134.216 202.038 133.268 201.264 133.268 199.549V194.891H131.075V193.79H133.268V191.56ZM144.033 191.749C143.426 191.749 142.963 191.294 142.963 190.687C142.963 190.088 143.426 189.632 144.033 189.632C144.64 189.632 145.103 190.088 145.103 190.687C145.103 191.294 144.64 191.749 144.033 191.749ZM147.485 202H140.664V200.93H143.487V194.837H140.687V193.768H144.761V200.93H147.485V202ZM149.388 193.768H150.769L153.068 200.619H153.167L155.451 193.768H156.824L153.819 202H152.401L149.388 193.768ZM161.489 202.144C159.918 202.144 158.871 201.158 158.871 199.663C158.871 198.206 159.918 197.341 161.792 197.243L164.053 197.129V196.385C164.053 195.353 163.424 194.784 162.278 194.784C161.329 194.784 160.662 195.186 160.449 195.892H159.182C159.334 194.572 160.609 193.669 162.293 193.669C164.228 193.669 165.336 194.655 165.336 196.37V202.008H164.106V200.771H163.977C163.583 201.651 162.688 202.144 161.489 202.144ZM161.861 201.014C163.105 201.014 164.053 200.187 164.053 199.086V198.115L161.936 198.214C160.783 198.267 160.176 198.76 160.176 199.618C160.176 200.483 160.821 201.014 161.861 201.014ZM170.137 191.56H171.412V193.79H174.75V194.891H171.427V199.534C171.427 200.429 172.057 200.915 173.217 200.915C173.68 200.915 174.507 200.892 174.727 200.869V201.962C174.522 202 173.521 202.038 173.126 202.038C171.085 202.038 170.137 201.264 170.137 199.549V194.891H167.944V193.79H170.137V191.56ZM182.981 199.876H184.233C183.982 201.234 182.677 202.152 180.947 202.152C178.686 202.152 177.374 200.794 177.374 198.449V197.212C177.374 195.042 178.762 193.616 180.856 193.616C182.996 193.616 184.256 195.035 184.256 197.417V198.221H178.648V198.555C178.648 200.065 179.544 201.036 180.947 201.036C181.987 201.036 182.753 200.596 182.981 199.876ZM180.849 194.724C179.476 194.724 178.648 195.664 178.648 197.243H182.981C182.981 195.672 182.177 194.724 180.849 194.724ZM189.459 202.137C187.555 202.137 186.31 200.763 186.31 198.646V197.114C186.31 195.004 187.555 193.631 189.459 193.631C190.65 193.631 191.53 194.139 191.887 195.042H192.024V190.535H193.336V202H192.069V200.74H191.925C191.5 201.651 190.635 202.137 189.459 202.137ZM189.838 200.961C191.189 200.961 192.062 199.989 192.062 198.464V197.281C192.062 195.763 191.189 194.792 189.838 194.792C188.48 194.792 187.608 195.763 187.608 197.281V198.464C187.608 199.982 188.48 200.961 189.838 200.961Z" fill="#EEEEEE"/>
<path d="M199.192 196.218C198.441 196.218 197.819 195.581 197.819 194.815C197.819 194.048 198.441 193.411 199.192 193.411C199.943 193.411 200.566 194.048 200.566 194.815C200.566 195.581 199.943 196.218 199.192 196.218ZM199.192 202.046C198.441 202.046 197.819 201.416 197.819 200.642C197.819 199.876 198.441 199.246 199.192 199.246C199.943 199.246 200.566 199.876 200.566 200.642C200.566 201.416 199.943 202.046 199.192 202.046Z" fill="white"/>
<path d="M216.399 191.56H217.674V193.79H221.012V194.891H217.689V199.534C217.689 200.429 218.319 200.915 219.48 200.915C219.943 200.915 220.77 200.892 220.99 200.869V201.962C220.785 202 219.783 202.038 219.389 202.038C217.348 202.038 216.399 201.264 216.399 199.549V194.891H214.206V193.79H216.399V191.56ZM226.694 198.313V200.968H229.243V202H223.773V200.968H225.434V194.8H223.606V193.768H226.679V195.869H226.846C227.149 194.344 228.173 193.555 229.759 193.555C230.23 193.555 230.677 193.623 230.95 193.737V195.186C230.571 195.05 230.04 194.959 229.592 194.959C227.771 194.959 226.694 196.218 226.694 198.313ZM239.606 193.768V202H238.369V200.551H238.263C237.823 201.575 236.882 202.152 235.63 202.152C233.84 202.152 232.868 201.082 232.868 199.109V193.768H234.158V198.783C234.158 200.27 234.765 200.968 236.048 200.968C237.406 200.968 238.316 200.02 238.316 198.616V193.768H239.606ZM247.678 199.876H248.93C248.679 201.234 247.374 202.152 245.644 202.152C243.383 202.152 242.07 200.794 242.07 198.449V197.212C242.07 195.042 243.459 193.616 245.553 193.616C247.693 193.616 248.952 195.035 248.952 197.417V198.221H243.345V198.555C243.345 200.065 244.241 201.036 245.644 201.036C246.684 201.036 247.45 200.596 247.678 199.876ZM245.546 194.724C244.172 194.724 243.345 195.664 243.345 197.243H247.678C247.678 195.672 246.873 194.724 245.546 194.724Z" fill="#00B51D"/>
<path d="M253.981 204.519H252.76L253.701 199.587H255.408L253.981 204.519Z" fill="white"/>
<path d="M115.911 219.313V221.968H118.46V223H112.99V221.968H114.652V215.8H112.823V214.768H115.896V216.869H116.063C116.366 215.344 117.391 214.555 118.976 214.555C119.447 214.555 119.894 214.623 120.168 214.737V216.186C119.788 216.05 119.257 215.959 118.809 215.959C116.988 215.959 115.911 217.218 115.911 219.313ZM127.678 220.876H128.93C128.679 222.234 127.374 223.152 125.644 223.152C123.383 223.152 122.07 221.794 122.07 219.449V218.212C122.07 216.042 123.459 214.616 125.553 214.616C127.693 214.616 128.952 216.035 128.952 218.417V219.221H123.345V219.555C123.345 221.065 124.241 222.036 125.644 222.036C126.684 222.036 127.45 221.596 127.678 220.876ZM125.546 215.724C124.172 215.724 123.345 216.664 123.345 218.243H127.678C127.678 216.672 126.873 215.724 125.546 215.724ZM134.156 214.631C135.332 214.631 136.189 215.117 136.622 216.027H136.758V214.768H138.033V225.777H136.72V221.725H136.576C136.22 222.628 135.347 223.137 134.156 223.137C132.251 223.137 131.007 221.763 131.007 219.654V218.121C131.007 216.004 132.251 214.631 134.156 214.631ZM134.528 215.815C133.169 215.815 132.304 216.786 132.304 218.303V219.487C132.304 221.005 133.169 221.983 134.528 221.983C135.886 221.983 136.751 221.012 136.751 219.487V218.303C136.751 216.786 135.886 215.815 134.528 215.815ZM147.258 214.768V223H146.021V221.551H145.915C145.475 222.575 144.534 223.152 143.282 223.152C141.491 223.152 140.52 222.082 140.52 220.109V214.768H141.81V219.783C141.81 221.27 142.417 221.968 143.699 221.968C145.057 221.968 145.968 221.02 145.968 219.616V214.768H147.258ZM155.329 220.876H156.581C156.331 222.234 155.026 223.152 153.296 223.152C151.035 223.152 149.722 221.794 149.722 219.449V218.212C149.722 216.042 151.111 214.616 153.205 214.616C155.344 214.616 156.604 216.035 156.604 218.417V219.221H150.997V219.555C150.997 221.065 151.892 222.036 153.296 222.036C154.335 222.036 155.102 221.596 155.329 220.876ZM153.197 215.724C151.824 215.724 150.997 216.664 150.997 218.243H155.329C155.329 216.672 154.525 215.724 153.197 215.724ZM159.326 216.991C159.326 215.564 160.54 214.608 162.354 214.608C164.068 214.608 165.229 215.466 165.381 216.839H164.137C163.985 216.118 163.295 215.678 162.331 215.678C161.284 215.678 160.609 216.164 160.609 216.915C160.609 217.545 161.033 217.901 162.065 218.129L163.226 218.394C164.827 218.759 165.556 219.457 165.556 220.648C165.556 222.165 164.288 223.152 162.339 223.152C160.472 223.152 159.235 222.279 159.091 220.868H160.404C160.593 221.627 161.322 222.067 162.384 222.067C163.507 222.067 164.22 221.558 164.22 220.769C164.22 220.117 163.818 219.768 162.771 219.533L161.549 219.252C160.062 218.91 159.326 218.159 159.326 216.991ZM170.137 212.56H171.412V214.79H174.75V215.891H171.427V220.534C171.427 221.429 172.057 221.915 173.217 221.915C173.68 221.915 174.507 221.892 174.727 221.869V222.962C174.522 223 173.521 223.038 173.126 223.038C171.085 223.038 170.137 222.264 170.137 220.549V215.891H167.944V214.79H170.137V212.56ZM202.151 224.039H201.119C199.276 224.039 198.691 223.455 198.691 221.581V219.882C198.691 218.713 198.009 218.03 196.233 218.212V216.839C198.009 217.021 198.691 216.346 198.691 215.17V213.47C198.691 211.596 199.276 211.012 201.119 211.012H202.151V212.051H201.324C200.186 212.051 199.966 212.317 199.966 213.637V215.663C199.966 216.725 199.169 217.431 197.629 217.469V217.59C199.169 217.621 199.966 218.326 199.966 219.388V221.414C199.966 222.734 200.186 223 201.324 223H202.151V224.039ZM138.64 236.938V243H137.479V237.317C137.479 236.315 137.115 235.792 136.424 235.792C135.704 235.792 135.264 236.422 135.264 237.446V243H134.11V237.309C134.11 236.315 133.746 235.792 133.048 235.792C132.32 235.792 131.864 236.422 131.864 237.446V243H130.703V234.768H131.857V235.929H131.993C132.198 235.101 132.79 234.616 133.564 234.616C134.338 234.616 134.884 235.094 135.059 235.906H135.195C135.408 235.117 136.068 234.616 136.895 234.616C138.041 234.616 138.64 235.413 138.64 236.938ZM146.112 240.876H147.364C147.114 242.234 145.809 243.152 144.079 243.152C141.818 243.152 140.505 241.794 140.505 239.449V238.212C140.505 236.042 141.893 234.616 143.988 234.616C146.127 234.616 147.387 236.035 147.387 238.417V239.221H141.78V239.555C141.78 241.065 142.675 242.036 144.079 242.036C145.118 242.036 145.884 241.596 146.112 240.876ZM143.98 235.724C142.607 235.724 141.78 236.664 141.78 238.243H146.112C146.112 236.672 145.308 235.724 143.98 235.724ZM151.702 232.56H152.977V234.79H156.316V235.891H152.992V240.534C152.992 241.429 153.622 241.915 154.783 241.915C155.246 241.915 156.073 241.892 156.293 241.869V242.962C156.088 243 155.086 243.038 154.692 243.038C152.651 243.038 151.702 242.264 151.702 240.549V235.891H149.51V234.79H151.702V232.56ZM158.947 243V231.535H160.191V236.224H160.298C160.73 235.2 161.678 234.623 162.938 234.623C164.729 234.623 165.7 235.701 165.7 237.666V243H164.41V237.992C164.41 236.513 163.803 235.807 162.513 235.807C161.155 235.807 160.237 236.756 160.237 238.159V243H158.947ZM171.541 243.152C169.363 243.152 167.974 241.733 167.974 239.51V238.265C167.974 236.042 169.363 234.623 171.541 234.623C173.718 234.623 175.107 236.042 175.107 238.265V239.51C175.107 241.733 173.718 243.152 171.541 243.152ZM171.541 235.762C170.129 235.762 169.249 236.763 169.249 238.379V239.388C169.249 241.012 170.129 242.006 171.541 242.006C172.952 242.006 173.832 241.012 173.832 239.388V238.379C173.832 236.763 172.952 235.762 171.541 235.762ZM180.242 243.137C178.337 243.137 177.093 241.763 177.093 239.646V238.114C177.093 236.004 178.337 234.631 180.242 234.631C181.433 234.631 182.313 235.139 182.67 236.042H182.806V231.535H184.119V243H182.852V241.74H182.708C182.283 242.651 181.418 243.137 180.242 243.137ZM180.621 241.961C181.972 241.961 182.844 240.989 182.844 239.464V238.281C182.844 236.763 181.972 235.792 180.621 235.792C179.263 235.792 178.391 236.763 178.391 238.281V239.464C178.391 240.982 179.263 241.961 180.621 241.961Z" fill="#EEEEEE"/>
<path d="M180.758 217.218C180.007 217.218 179.384 216.581 179.384 215.815C179.384 215.048 180.007 214.411 180.758 214.411C181.509 214.411 182.131 215.048 182.131 215.815C182.131 216.581 181.509 217.218 180.758 217.218ZM180.758 223.046C180.007 223.046 179.384 222.416 179.384 221.642C179.384 220.876 180.007 220.246 180.758 220.246C181.509 220.246 182.131 220.876 182.131 221.642C182.131 222.416 181.509 223.046 180.758 223.046ZM189.975 237.218C189.224 237.218 188.602 236.581 188.602 235.815C188.602 235.048 189.224 234.411 189.975 234.411C190.726 234.411 191.348 235.048 191.348 235.815C191.348 236.581 190.726 237.218 189.975 237.218ZM189.975 243.046C189.224 243.046 188.602 242.416 188.602 241.642C188.602 240.876 189.224 240.246 189.975 240.246C190.726 240.246 191.348 240.876 191.348 241.642C191.348 242.416 190.726 243.046 189.975 243.046Z" fill="white"/>
<path d="M209.493 237.991H208.112V233.051H209.493V237.991ZM220.623 240.646V239.577H218.096V238.431H221.973V240.76C221.973 242.816 220.425 244.228 218.217 244.228C215.645 244.228 214.158 242.498 214.158 239.501V237.551C214.158 234.554 215.645 232.824 218.217 232.824C220.494 232.824 221.92 234.212 221.973 236.481H220.623C220.562 235.054 219.591 234.091 218.195 234.091C216.427 234.091 215.509 235.282 215.509 237.551V239.501C215.509 241.769 216.434 242.961 218.202 242.961C219.697 242.961 220.623 242.08 220.623 240.646ZM230.644 242.771V244H224.18V233.051H230.644V234.28H225.523V237.831H230.363V239.007H225.523V242.771H230.644ZM237.122 244H235.787V234.28H232.479V233.051H240.43V234.28H237.122V244ZM246.362 237.991H244.981V233.051H246.362V237.991Z" fill="#FD4B28"/>
<path d="M254.198 246.519H252.977L253.918 241.587H255.625L254.198 246.519Z" fill="white"/>
<path d="M101.172 266.768V275H99.9349V273.551H99.8287C99.3886 274.575 98.4478 275.152 97.1959 275.152C95.4052 275.152 94.434 274.082 94.434 272.109V266.768H95.7239V271.783C95.7239 273.27 96.3309 273.968 97.6132 273.968C98.9713 273.968 99.8818 273.02 99.8818 271.616V266.768H101.172ZM106.694 271.313V273.968H109.243V275H103.773V273.968H105.434V267.8H103.606V266.768H106.679V268.869H106.846C107.149 267.344 108.173 266.555 109.759 266.555C110.23 266.555 110.677 266.623 110.95 266.737V268.186C110.571 268.05 110.04 267.959 109.592 267.959C107.771 267.959 106.694 269.218 106.694 271.313ZM119.834 275H113.013V273.93H115.828V264.605H113.035V263.535H117.117V273.93H119.834V275Z" fill="#EEEEEE"/>
<path d="M125.454 269.218C124.703 269.218 124.081 268.581 124.081 267.815C124.081 267.048 124.703 266.411 125.454 266.411C126.206 266.411 126.828 267.048 126.828 267.815C126.828 268.581 126.206 269.218 125.454 269.218ZM125.454 275.046C124.703 275.046 124.081 274.416 124.081 273.642C124.081 272.876 124.703 272.246 125.454 272.246C126.206 272.246 126.828 272.876 126.828 273.642C126.828 274.416 126.206 275.046 125.454 275.046Z" fill="white"/>
<path d="M181.493 248.991H180.112V244.051H181.493V248.991ZM186.644 255V243.535H187.888V248.224H187.994C188.427 247.2 189.375 246.623 190.635 246.623C192.425 246.623 193.396 247.701 193.396 249.666V255H192.107V249.992C192.107 248.513 191.5 247.807 190.21 247.807C188.852 247.807 187.934 248.756 187.934 250.159V255H186.644ZM197.834 244.56H199.108V246.79H202.447V247.891H199.123V252.534C199.123 253.429 199.753 253.915 200.914 253.915C201.377 253.915 202.204 253.892 202.424 253.869V254.962C202.219 255 201.218 255.038 200.823 255.038C198.782 255.038 197.834 254.264 197.834 252.549V247.891H195.641V246.79H197.834V244.56ZM207.051 244.56H208.326V246.79H211.664V247.891H208.341V252.534C208.341 253.429 208.97 253.915 210.131 253.915C210.594 253.915 211.421 253.892 211.641 253.869V254.962C211.436 255 210.435 255.038 210.04 255.038C207.999 255.038 207.051 254.264 207.051 252.549V247.891H204.858V246.79H207.051V244.56ZM218.188 246.631C220.092 246.631 221.336 248.004 221.336 250.121V251.654C221.336 253.763 220.092 255.137 218.188 255.137C216.996 255.137 216.124 254.628 215.767 253.725H215.623V257.777H214.31V246.768H215.585V248.027H215.722C216.154 247.117 217.012 246.631 218.188 246.631ZM217.816 247.815C216.458 247.815 215.593 248.786 215.593 250.303V251.487C215.593 253.012 216.458 253.983 217.816 253.983C219.174 253.983 220.039 253.005 220.039 251.487V250.303C220.039 248.786 219.174 247.815 217.816 247.815ZM223.892 248.991C223.892 247.564 225.106 246.608 226.919 246.608C228.634 246.608 229.795 247.466 229.947 248.839H228.702C228.551 248.118 227.86 247.678 226.897 247.678C225.849 247.678 225.174 248.164 225.174 248.915C225.174 249.545 225.599 249.901 226.631 250.129L227.792 250.394C229.393 250.759 230.121 251.457 230.121 252.648C230.121 254.165 228.854 255.152 226.904 255.152C225.038 255.152 223.801 254.279 223.657 252.868H224.969C225.159 253.627 225.887 254.067 226.95 254.067C228.073 254.067 228.786 253.558 228.786 252.769C228.786 252.117 228.384 251.768 227.337 251.533L226.115 251.252C224.628 250.91 223.892 250.159 223.892 248.991ZM236.106 249.218C235.355 249.218 234.733 248.581 234.733 247.815C234.733 247.048 235.355 246.411 236.106 246.411C236.857 246.411 237.479 247.048 237.479 247.815C237.479 248.581 236.857 249.218 236.106 249.218ZM236.106 255.046C235.355 255.046 234.733 254.416 234.733 253.642C234.733 252.876 235.355 252.246 236.106 252.246C236.857 252.246 237.479 252.876 237.479 253.642C237.479 254.416 236.857 255.046 236.106 255.046ZM243.282 256.039H242.023L247.357 243.012H248.624L243.282 256.039ZM252.5 256.039H251.24L256.574 243.012H257.841L252.5 256.039ZM262.923 255.144C261.353 255.144 260.306 254.158 260.306 252.663C260.306 251.206 261.353 250.341 263.227 250.243L265.488 250.129V249.385C265.488 248.353 264.858 247.784 263.712 247.784C262.764 247.784 262.096 248.186 261.884 248.892H260.617C260.768 247.572 262.043 246.669 263.727 246.669C265.662 246.669 266.77 247.655 266.77 249.37V255.008H265.541V253.771H265.412C265.017 254.651 264.122 255.144 262.923 255.144ZM263.295 254.014C264.539 254.014 265.488 253.187 265.488 252.086V251.115L263.371 251.214C262.218 251.267 261.611 251.76 261.611 252.618C261.611 253.483 262.255 254.014 263.295 254.014ZM273.491 246.631C275.395 246.631 276.64 248.004 276.64 250.121V251.654C276.64 253.763 275.395 255.137 273.491 255.137C272.3 255.137 271.427 254.628 271.071 253.725H270.926V257.777H269.614V246.768H270.888V248.027H271.025C271.458 247.117 272.315 246.631 273.491 246.631ZM273.119 247.815C271.761 247.815 270.896 248.786 270.896 250.303V251.487C270.896 253.012 271.761 253.983 273.119 253.983C274.477 253.983 275.342 253.005 275.342 251.487V250.303C275.342 248.786 274.477 247.815 273.119 247.815ZM282.336 244.749C281.729 244.749 281.267 244.294 281.267 243.687C281.267 243.088 281.729 242.632 282.336 242.632C282.943 242.632 283.406 243.088 283.406 243.687C283.406 244.294 282.943 244.749 282.336 244.749ZM285.789 255H278.968V253.93H281.79V247.837H278.99V246.768H283.065V253.93H285.789V255ZM291.409 255.046C290.658 255.046 290.036 254.416 290.036 253.642C290.036 252.876 290.658 252.246 291.409 252.246C292.161 252.246 292.783 252.876 292.783 253.642C292.783 254.416 292.161 255.046 291.409 255.046ZM304.056 249.332H302.781C302.622 248.369 301.818 247.762 300.756 247.762C299.322 247.762 298.525 248.74 298.525 250.508V251.252C298.525 253.02 299.322 253.991 300.756 253.991C301.818 253.991 302.622 253.391 302.781 252.451H304.056C303.851 254.127 302.599 255.152 300.778 255.152C298.54 255.152 297.235 253.778 297.235 251.419V250.341C297.235 247.982 298.54 246.608 300.778 246.608C302.599 246.608 303.844 247.64 304.056 249.332ZM306.467 255V243.535H307.712V248.224H307.818C308.251 247.2 309.199 246.623 310.458 246.623C312.249 246.623 313.22 247.701 313.22 249.666V255H311.93V249.992C311.93 248.513 311.323 247.807 310.034 247.807C308.675 247.807 307.757 248.756 307.757 250.159V255H306.467ZM321.284 252.876H322.536C322.286 254.234 320.981 255.152 319.251 255.152C316.99 255.152 315.677 253.794 315.677 251.449V250.212C315.677 248.042 317.066 246.616 319.16 246.616C321.299 246.616 322.559 248.035 322.559 250.417V251.221H316.952V251.555C316.952 253.065 317.847 254.036 319.251 254.036C320.29 254.036 321.057 253.596 321.284 252.876ZM319.152 247.724C317.779 247.724 316.952 248.664 316.952 250.243H321.284C321.284 248.672 320.48 247.724 319.152 247.724ZM331.708 249.332H330.433C330.274 248.369 329.47 247.762 328.407 247.762C326.973 247.762 326.177 248.74 326.177 250.508V251.252C326.177 253.02 326.973 253.991 328.407 253.991C329.47 253.991 330.274 253.391 330.433 252.451H331.708C331.503 254.127 330.251 255.152 328.43 255.152C326.192 255.152 324.887 253.778 324.887 251.419V250.341C324.887 247.982 326.192 246.608 328.43 246.608C330.251 246.608 331.495 247.64 331.708 249.332ZM336.122 250.463L339.711 246.768H341.274L338.08 250.03L341.502 255H339.969L337.162 250.91L336.024 252.003V255H334.734V243.535H336.024V250.463H336.122ZM350.309 255H343.488V253.93H346.303V244.605H343.511V243.535H347.593V253.93H350.309V255ZM353.623 257.929C353.434 257.929 353.183 257.921 353.069 257.906V256.775C353.168 256.798 353.403 256.806 353.525 256.806C354.299 256.806 354.724 256.457 355.065 255.501L355.209 255.053L352.182 246.768H353.585L355.892 253.657H355.991L358.29 246.768H359.663L356.56 255.303C355.839 257.329 355.148 257.929 353.623 257.929ZM361.771 255V243.535H363.015V248.224H363.121C363.554 247.2 364.502 246.623 365.762 246.623C367.552 246.623 368.524 247.701 368.524 249.666V255H367.234V249.992C367.234 248.513 366.627 247.807 365.337 247.807C363.979 247.807 363.061 248.756 363.061 250.159V255H361.771ZM373.848 246.631C375.024 246.631 375.882 247.117 376.314 248.027H376.451V246.768H377.726V257.777H376.413V253.725H376.269C375.912 254.628 375.04 255.137 373.848 255.137C371.944 255.137 370.7 253.763 370.7 251.654V250.121C370.7 248.004 371.944 246.631 373.848 246.631ZM374.22 247.815C372.862 247.815 371.997 248.786 371.997 250.303V251.487C371.997 253.005 372.862 253.983 374.22 253.983C375.578 253.983 376.443 253.012 376.443 251.487V250.303C376.443 248.786 375.578 247.815 374.22 247.815ZM383.582 255.046C382.83 255.046 382.208 254.416 382.208 253.642C382.208 252.876 382.83 252.246 383.582 252.246C384.333 252.246 384.955 252.876 384.955 253.642C384.955 254.416 384.333 255.046 383.582 255.046ZM396.228 249.332H394.954C394.794 248.369 393.99 247.762 392.928 247.762C391.494 247.762 390.697 248.74 390.697 250.508V251.252C390.697 253.02 391.494 253.991 392.928 253.991C393.99 253.991 394.794 253.391 394.954 252.451H396.228C396.023 254.127 394.772 255.152 392.951 255.152C390.712 255.152 389.407 253.778 389.407 251.419V250.341C389.407 247.982 390.712 246.608 392.951 246.608C394.772 246.608 396.016 247.64 396.228 249.332ZM402.016 255.152C399.838 255.152 398.45 253.733 398.45 251.51V250.265C398.45 248.042 399.838 246.623 402.016 246.623C404.194 246.623 405.582 248.042 405.582 250.265V251.51C405.582 253.733 404.194 255.152 402.016 255.152ZM402.016 247.762C400.605 247.762 399.725 248.763 399.725 250.379V251.388C399.725 253.012 400.605 254.006 402.016 254.006C403.427 254.006 404.307 253.012 404.307 251.388V250.379C404.307 248.763 403.427 247.762 402.016 247.762ZM415.201 248.938V255H414.041V249.317C414.041 248.315 413.676 247.792 412.986 247.792C412.265 247.792 411.825 248.422 411.825 249.446V255H410.672V249.309C410.672 248.315 410.308 247.792 409.61 247.792C408.881 247.792 408.426 248.422 408.426 249.446V255H407.265V246.768H408.418V247.929H408.555C408.76 247.101 409.352 246.616 410.125 246.616C410.899 246.616 411.446 247.094 411.62 247.906H411.757C411.969 247.117 412.629 246.616 413.456 246.616C414.602 246.616 415.201 247.413 415.201 248.938ZM418.409 256.039H417.15L422.484 243.012H423.751L418.409 256.039ZM430.184 246.631C432.088 246.631 433.332 248.004 433.332 250.121V251.654C433.332 253.763 432.088 255.137 430.184 255.137C428.992 255.137 428.12 254.628 427.763 253.725H427.619V257.777H426.306V246.768H427.581V248.027H427.718C428.15 247.117 429.008 246.631 430.184 246.631ZM429.812 247.815C428.454 247.815 427.589 248.786 427.589 250.303V251.487C427.589 253.012 428.454 253.983 429.812 253.983C431.17 253.983 432.035 253.005 432.035 251.487V250.303C432.035 248.786 431.17 247.815 429.812 247.815ZM442.254 246.768V255H441.017V253.551H440.911C440.471 254.575 439.53 255.152 438.278 255.152C436.487 255.152 435.516 254.082 435.516 252.109V246.768H436.806V251.783C436.806 253.27 437.413 253.968 438.695 253.968C440.053 253.968 440.964 253.02 440.964 251.616V246.768H442.254ZM448.618 255.137C447.442 255.137 446.577 254.651 446.152 253.74H446.008V255H444.741V243.535H446.053V248.042H446.19C446.554 247.139 447.427 246.631 448.618 246.631C450.522 246.631 451.767 248.004 451.767 250.114V251.646C451.767 253.763 450.522 255.137 448.618 255.137ZM448.239 253.961C449.604 253.961 450.469 252.982 450.469 251.464V250.281C450.469 248.763 449.604 247.792 448.239 247.792C446.888 247.792 446.023 248.763 446.023 250.281V251.464C446.023 252.989 446.888 253.961 448.239 253.961ZM460.916 255H454.095V253.93H456.91V244.605H454.117V243.535H458.199V253.93H460.916V255ZM466.681 244.749C466.074 244.749 465.611 244.294 465.611 243.687C465.611 243.088 466.074 242.632 466.681 242.632C467.288 242.632 467.751 243.088 467.751 243.687C467.751 244.294 467.288 244.749 466.681 244.749ZM470.133 255H463.312V253.93H466.134V247.837H463.335V246.768H467.409V253.93H470.133V255ZM479.183 249.332H477.909C477.749 248.369 476.945 247.762 475.883 247.762C474.449 247.762 473.652 248.74 473.652 250.508V251.252C473.652 253.02 474.449 253.991 475.883 253.991C476.945 253.991 477.749 253.391 477.909 252.451H479.183C478.978 254.127 477.726 255.152 475.905 255.152C473.667 255.152 472.362 253.778 472.362 251.419V250.341C472.362 247.982 473.667 246.608 475.905 246.608C477.726 246.608 478.971 247.64 479.183 249.332ZM488.985 250.743H480.957V249.545H488.985V250.743ZM177.806 268.991C177.806 267.564 179.02 266.608 180.833 266.608C182.548 266.608 183.709 267.466 183.861 268.839H182.616C182.464 268.118 181.774 267.678 180.81 267.678C179.763 267.678 179.088 268.164 179.088 268.915C179.088 269.545 179.513 269.901 180.545 270.129L181.706 270.394C183.307 270.759 184.035 271.457 184.035 272.648C184.035 274.165 182.768 275.152 180.818 275.152C178.952 275.152 177.715 274.279 177.571 272.868H178.883C179.073 273.627 179.801 274.067 180.864 274.067C181.986 274.067 182.7 273.558 182.7 272.769C182.7 272.117 182.298 271.768 181.251 271.533L180.029 271.252C178.542 270.91 177.806 270.159 177.806 268.991ZM188.616 264.56H189.891V266.79H193.23V267.891H189.906V272.534C189.906 273.429 190.536 273.915 191.697 273.915C192.16 273.915 192.987 273.892 193.207 273.869V274.962C193.002 275 192 275.038 191.606 275.038C189.565 275.038 188.616 274.264 188.616 272.549V267.891H186.424V266.79H188.616V264.56ZM198.403 275.144C196.832 275.144 195.785 274.158 195.785 272.663C195.785 271.206 196.832 270.341 198.706 270.243L200.967 270.129V269.385C200.967 268.353 200.337 267.784 199.192 267.784C198.243 267.784 197.576 268.186 197.363 268.892H196.096C196.248 267.572 197.523 266.669 199.207 266.669C201.142 266.669 202.249 267.655 202.249 269.37V275.008H201.02V273.771H200.891C200.497 274.651 199.601 275.144 198.403 275.144ZM198.774 274.014C200.019 274.014 200.967 273.187 200.967 272.086V271.115L198.85 271.214C197.697 271.267 197.09 271.76 197.09 272.618C197.09 273.483 197.735 274.014 198.774 274.014ZM207.051 264.56H208.326V266.79H211.664V267.891H208.341V272.534C208.341 273.429 208.97 273.915 210.131 273.915C210.594 273.915 211.421 273.892 211.641 273.869V274.962C211.436 275 210.435 275.038 210.04 275.038C207.999 275.038 207.051 274.264 207.051 272.549V267.891H204.858V266.79H207.051V264.56ZM214.675 268.991C214.675 267.564 215.889 266.608 217.702 266.608C219.417 266.608 220.578 267.466 220.729 268.839H219.485C219.333 268.118 218.643 267.678 217.679 267.678C216.632 267.678 215.957 268.164 215.957 268.915C215.957 269.545 216.382 269.901 217.414 270.129L218.575 270.394C220.176 270.759 220.904 271.457 220.904 272.648C220.904 274.165 219.637 275.152 217.687 275.152C215.82 275.152 214.584 274.279 214.439 272.868H215.752C215.942 273.627 216.67 274.067 217.732 274.067C218.855 274.067 219.569 273.558 219.569 272.769C219.569 272.117 219.166 271.768 218.119 271.533L216.898 271.252C215.411 270.91 214.675 270.159 214.675 268.991ZM227.579 268.991H226.198V264.051H227.579V268.991Z" fill="#FD4B28"/>
<path d="M235.416 277.519H234.194L235.135 272.587H236.842L235.416 277.519Z" fill="white"/>
<path d="M133.837 275.144C132.266 275.144 131.219 274.158 131.219 272.663C131.219 271.206 132.266 270.341 134.141 270.243L136.402 270.129V269.385C136.402 268.353 135.772 267.784 134.626 267.784C133.678 267.784 133.01 268.186 132.798 268.892H131.531C131.682 267.572 132.957 266.669 134.641 266.669C136.576 266.669 137.684 267.655 137.684 269.37V275.008H136.455V273.771H136.326C135.931 274.651 135.036 275.144 133.837 275.144ZM134.209 274.014C135.453 274.014 136.402 273.187 136.402 272.086V271.115L134.285 271.214C133.131 271.267 132.524 271.76 132.524 272.618C132.524 273.483 133.169 274.014 134.209 274.014ZM140.892 268.991C140.892 267.564 142.106 266.608 143.919 266.608C145.634 266.608 146.795 267.466 146.947 268.839H145.702C145.551 268.118 144.86 267.678 143.897 267.678C142.849 267.678 142.174 268.164 142.174 268.915C142.174 269.545 142.599 269.901 143.631 270.129L144.792 270.394C146.393 270.759 147.121 271.457 147.121 272.648C147.121 274.165 145.854 275.152 143.904 275.152C142.038 275.152 140.801 274.279 140.657 272.868H141.969C142.159 273.627 142.887 274.067 143.95 274.067C145.073 274.067 145.786 273.558 145.786 272.769C145.786 272.117 145.384 271.768 144.337 271.533L143.115 271.252C141.628 270.91 140.892 270.159 140.892 268.991ZM150.109 268.991C150.109 267.564 151.323 266.608 153.136 266.608C154.851 266.608 156.012 267.466 156.164 268.839H154.92C154.768 268.118 154.077 267.678 153.114 267.678C152.067 267.678 151.391 268.164 151.391 268.915C151.391 269.545 151.816 269.901 152.848 270.129L154.009 270.394C155.61 270.759 156.338 271.457 156.338 272.648C156.338 274.165 155.071 275.152 153.121 275.152C151.255 275.152 150.018 274.279 149.874 272.868H151.187C151.376 273.627 152.105 274.067 153.167 274.067C154.29 274.067 155.003 273.558 155.003 272.769C155.003 272.117 154.601 271.768 153.554 271.533L152.332 271.252C150.845 270.91 150.109 270.159 150.109 268.991ZM164.546 272.876H165.798C165.548 274.234 164.243 275.152 162.513 275.152C160.252 275.152 158.939 273.794 158.939 271.449V270.212C158.939 268.042 160.328 266.616 162.422 266.616C164.562 266.616 165.821 268.035 165.821 270.417V271.221H160.214V271.555C160.214 273.065 161.109 274.036 162.513 274.036C163.553 274.036 164.319 273.596 164.546 272.876ZM162.414 267.724C161.041 267.724 160.214 268.664 160.214 270.243H164.546C164.546 268.672 163.742 267.724 162.414 267.724ZM171.214 271.313V273.968H173.764V275H168.293V273.968H169.955V267.8H168.126V266.768H171.199V268.869H171.366C171.67 267.344 172.694 266.555 174.28 266.555C174.75 266.555 175.198 266.623 175.471 266.737V268.186C175.091 268.05 174.56 267.959 174.113 267.959C172.292 267.959 171.214 269.218 171.214 271.313ZM179.354 264.56H180.629V266.79H183.967V267.891H180.644V272.534C180.644 273.429 181.274 273.915 182.435 273.915C182.897 273.915 183.724 273.892 183.945 273.869V274.962C183.74 275 182.738 275.038 182.344 275.038C180.303 275.038 179.354 274.264 179.354 272.549V267.891H177.161V266.79H179.354V264.56ZM190.119 264.749C189.512 264.749 189.049 264.294 189.049 263.687C189.049 263.088 189.512 262.632 190.119 262.632C190.726 262.632 191.189 263.088 191.189 263.687C191.189 264.294 190.726 264.749 190.119 264.749ZM193.571 275H186.75V273.93H189.573V267.837H186.773V266.768H190.848V273.93H193.571V275ZM199.192 275.152C197.015 275.152 195.626 273.733 195.626 271.51V270.265C195.626 268.042 197.015 266.623 199.192 266.623C201.37 266.623 202.758 268.042 202.758 270.265V271.51C202.758 273.733 201.37 275.152 199.192 275.152ZM199.192 267.762C197.781 267.762 196.901 268.763 196.901 270.379V271.388C196.901 273.012 197.781 274.006 199.192 274.006C200.603 274.006 201.484 273.012 201.484 271.388V270.379C201.484 268.763 200.603 267.762 199.192 267.762ZM205.041 275V266.768H206.277V268.217H206.384C206.824 267.193 207.764 266.616 209.016 266.616C210.807 266.616 211.778 267.686 211.778 269.658V275H210.488V269.985C210.488 268.498 209.881 267.8 208.599 267.8C207.241 267.8 206.33 268.748 206.33 270.152V275H205.041ZM214.63 268.991C214.63 267.564 215.844 266.608 217.657 266.608C219.372 266.608 220.533 267.466 220.684 268.839H219.44C219.288 268.118 218.598 267.678 217.634 267.678C216.587 267.678 215.912 268.164 215.912 268.915C215.912 269.545 216.337 269.901 217.369 270.129L218.53 270.394C220.13 270.759 220.859 271.457 220.859 272.648C220.859 274.165 219.592 275.152 217.642 275.152C215.775 275.152 214.539 274.279 214.394 272.868H215.707C215.897 273.627 216.625 274.067 217.687 274.067C218.81 274.067 219.524 273.558 219.524 272.769C219.524 272.117 219.121 271.768 218.074 271.533L216.853 271.252C215.366 270.91 214.63 270.159 214.63 268.991ZM95.8301 283.012H99.8287V284.051H97.082V295H99.8439V296.039H95.8301V283.012Z" fill="#EEEEEE"/>
<path d="M226.844 269.218C226.093 269.218 225.471 268.581 225.471 267.815C225.471 267.048 226.093 266.411 226.844 266.411C227.595 266.411 228.217 267.048 228.217 267.815C228.217 268.581 227.595 269.218 226.844 269.218ZM226.844 275.046C226.093 275.046 225.471 274.416 225.471 273.642C225.471 272.876 226.093 272.246 226.844 272.246C227.595 272.246 228.217 272.876 228.217 273.642C228.217 274.416 227.595 275.046 226.844 275.046Z" fill="white"/>
<path d="M155.633 296L154.685 292.859H150.876L149.92 296H148.561L152.09 285.051H153.516L157.044 296H155.633ZM152.765 286.66L151.225 291.713H154.336L152.803 286.66H152.765ZM159.023 289.991C159.023 288.564 160.237 287.608 162.05 287.608C163.765 287.608 164.926 288.466 165.078 289.839H163.833C163.682 289.118 162.991 288.678 162.028 288.678C160.981 288.678 160.305 289.164 160.305 289.915C160.305 290.545 160.73 290.901 161.762 291.129L162.923 291.394C164.524 291.759 165.252 292.457 165.252 293.648C165.252 295.165 163.985 296.152 162.035 296.152C160.169 296.152 158.932 295.279 158.788 293.868H160.1C160.29 294.627 161.019 295.067 162.081 295.067C163.204 295.067 163.917 294.558 163.917 293.769C163.917 293.117 163.515 292.768 162.468 292.533L161.246 292.252C159.759 291.91 159.023 291.159 159.023 289.991ZM168.24 289.991C168.24 288.564 169.454 287.608 171.268 287.608C172.982 287.608 174.143 288.466 174.295 289.839H173.051C172.899 289.118 172.208 288.678 171.245 288.678C170.198 288.678 169.523 289.164 169.523 289.915C169.523 290.545 169.947 290.901 170.979 291.129L172.14 291.394C173.741 291.759 174.47 292.457 174.47 293.648C174.47 295.165 173.202 296.152 171.252 296.152C169.386 296.152 168.149 295.279 168.005 293.868H169.318C169.507 294.627 170.236 295.067 171.298 295.067C172.421 295.067 173.134 294.558 173.134 293.769C173.134 293.117 172.732 292.768 171.685 292.533L170.463 292.252C168.976 291.91 168.24 291.159 168.24 289.991ZM182.678 293.876H183.93C183.679 295.234 182.374 296.152 180.644 296.152C178.383 296.152 177.07 294.794 177.07 292.449V291.212C177.07 289.042 178.459 287.616 180.553 287.616C182.693 287.616 183.952 289.035 183.952 291.417V292.221H178.345V292.555C178.345 294.065 179.241 295.036 180.644 295.036C181.684 295.036 182.45 294.596 182.678 293.876ZM180.546 288.724C179.172 288.724 178.345 289.664 178.345 291.243H182.678C182.678 289.672 181.873 288.724 180.546 288.724ZM189.345 292.313V294.968H191.895V296H186.424V294.968H188.086V288.8H186.257V287.768H189.33V289.869H189.497C189.801 288.344 190.825 287.555 192.411 287.555C192.881 287.555 193.329 287.623 193.602 287.737V289.186C193.223 289.05 192.692 288.959 192.244 288.959C190.423 288.959 189.345 290.218 189.345 292.313ZM197.485 285.56H198.76V287.79H202.098V288.891H198.775V293.534C198.775 294.429 199.405 294.915 200.566 294.915C201.029 294.915 201.856 294.892 202.076 294.869V295.962C201.871 296 200.869 296.038 200.475 296.038C198.434 296.038 197.485 295.264 197.485 293.549V288.891H195.292V287.79H197.485V285.56ZM208.25 285.749C207.643 285.749 207.18 285.294 207.18 284.687C207.18 284.088 207.643 283.632 208.25 283.632C208.857 283.632 209.32 284.088 209.32 284.687C209.32 285.294 208.857 285.749 208.25 285.749ZM211.703 296H204.881V294.93H207.704V288.837H204.904V287.768H208.979V294.93H211.703V296ZM217.323 296.152C215.146 296.152 213.757 294.733 213.757 292.51V291.265C213.757 289.042 215.146 287.623 217.323 287.623C219.501 287.623 220.889 289.042 220.889 291.265V292.51C220.889 294.733 219.501 296.152 217.323 296.152ZM217.323 288.762C215.912 288.762 215.032 289.763 215.032 291.379V292.388C215.032 294.012 215.912 295.006 217.323 295.006C218.735 295.006 219.615 294.012 219.615 292.388V291.379C219.615 289.763 218.735 288.762 217.323 288.762ZM223.172 296V287.768H224.409V289.217H224.515C224.955 288.193 225.896 287.616 227.148 287.616C228.938 287.616 229.909 288.686 229.909 290.658V296H228.62V290.985C228.62 289.498 228.013 288.8 226.73 288.8C225.372 288.8 224.462 289.748 224.462 291.152V296H223.172ZM235.963 296H232.381V285.051H235.925C237.943 285.051 239.157 286.06 239.157 287.76C239.157 288.966 238.375 289.96 237.275 290.15V290.264C238.747 290.408 239.711 291.478 239.711 292.942C239.711 294.862 238.315 296 235.963 296ZM233.709 286.205V289.778H235.416C236.972 289.778 237.806 289.149 237.806 287.995C237.806 286.85 237.017 286.205 235.621 286.205H233.709ZM233.709 294.839H235.674C237.412 294.839 238.322 294.156 238.322 292.851C238.322 291.561 237.404 290.894 235.629 290.894H233.709V294.839ZM248.344 287.768V296H247.107V294.551H247.001C246.561 295.575 245.62 296.152 244.368 296.152C242.577 296.152 241.606 295.082 241.606 293.109V287.768H242.896V292.783C242.896 294.27 243.503 294.968 244.785 294.968C246.143 294.968 247.054 294.02 247.054 292.616V287.768H248.344ZM254.336 285.749C253.729 285.749 253.267 285.294 253.267 284.687C253.267 284.088 253.729 283.632 254.336 283.632C254.943 283.632 255.406 284.088 255.406 284.687C255.406 285.294 254.943 285.749 254.336 285.749ZM257.789 296H250.968V294.93H253.79V288.837H250.99V287.768H255.065V294.93H257.789V296ZM267.006 296H260.185V294.93H263V285.605H260.208V284.535H264.29V294.93H267.006V296ZM272.111 296.137C270.206 296.137 268.962 294.763 268.962 292.646V291.114C268.962 289.004 270.206 287.631 272.111 287.631C273.302 287.631 274.182 288.139 274.539 289.042H274.675V284.535H275.988V296H274.721V294.74H274.577C274.152 295.651 273.287 296.137 272.111 296.137ZM272.49 294.961C273.841 294.961 274.713 293.989 274.713 292.464V291.281C274.713 289.763 273.841 288.792 272.49 288.792C271.132 288.792 270.259 289.763 270.259 291.281V292.464C270.259 293.982 271.132 294.961 272.49 294.961ZM284.067 293.876H285.319C285.069 295.234 283.763 296.152 282.034 296.152C279.772 296.152 278.46 294.794 278.46 292.449V291.212C278.46 289.042 279.848 287.616 281.942 287.616C284.082 287.616 285.342 289.035 285.342 291.417V292.221H279.735V292.555C279.735 294.065 280.63 295.036 282.034 295.036C283.073 295.036 283.839 294.596 284.067 293.876ZM281.935 288.724C280.562 288.724 279.735 289.664 279.735 291.243H284.067C284.067 289.672 283.263 288.724 281.935 288.724ZM290.735 292.313V294.968H293.284V296H287.814V294.968H289.475V288.8H287.647V287.768H290.72V289.869H290.887C291.19 288.344 292.214 287.555 293.8 287.555C294.271 287.555 294.718 287.623 294.991 287.737V289.186C294.612 289.05 294.081 288.959 293.633 288.959C291.812 288.959 290.735 290.218 290.735 292.313ZM300.278 296.046C299.527 296.046 298.905 295.416 298.905 294.642C298.905 293.876 299.527 293.246 300.278 293.246C301.029 293.246 301.652 293.876 301.652 294.642C301.652 295.416 301.029 296.046 300.278 296.046ZM306.498 289.991C306.498 288.564 307.712 287.608 309.526 287.608C311.241 287.608 312.401 288.466 312.553 289.839H311.309C311.157 289.118 310.467 288.678 309.503 288.678C308.456 288.678 307.781 289.164 307.781 289.915C307.781 290.545 308.206 290.901 309.238 291.129L310.398 291.394C311.999 291.759 312.728 292.457 312.728 293.648C312.728 295.165 311.461 296.152 309.511 296.152C307.644 296.152 306.407 295.279 306.263 293.868H307.576C307.766 294.627 308.494 295.067 309.556 295.067C310.679 295.067 311.392 294.558 311.392 293.769C311.392 293.117 310.99 292.768 309.943 292.533L308.722 292.252C307.234 291.91 306.498 291.159 306.498 289.991ZM317.309 285.56H318.584V287.79H321.922V288.891H318.599V293.534C318.599 294.429 319.229 294.915 320.39 294.915C320.852 294.915 321.679 294.892 321.899 294.869V295.962C321.695 296 320.693 296.038 320.299 296.038C318.257 296.038 317.309 295.264 317.309 293.549V288.891H315.116V287.79H317.309V285.56ZM327.095 296.144C325.525 296.144 324.478 295.158 324.478 293.663C324.478 292.206 325.525 291.341 327.399 291.243L329.66 291.129V290.385C329.66 289.353 329.03 288.784 327.884 288.784C326.936 288.784 326.268 289.186 326.056 289.892H324.789C324.94 288.572 326.215 287.669 327.9 287.669C329.834 287.669 330.942 288.655 330.942 290.37V296.008H329.713V294.771H329.584C329.189 295.651 328.294 296.144 327.095 296.144ZM327.467 295.014C328.711 295.014 329.66 294.187 329.66 293.086V292.115L327.543 292.214C326.39 292.267 325.783 292.76 325.783 293.618C325.783 294.483 326.428 295.014 327.467 295.014ZM335.743 285.56H337.018V287.79H340.357V288.891H337.033V293.534C337.033 294.429 337.663 294.915 338.824 294.915C339.287 294.915 340.114 294.892 340.334 294.869V295.962C340.129 296 339.127 296.038 338.733 296.038C336.692 296.038 335.743 295.264 335.743 293.549V288.891H333.551V287.79H335.743V285.56ZM349.733 287.768V296H348.496V294.551H348.39C347.95 295.575 347.009 296.152 345.757 296.152C343.967 296.152 342.996 295.082 342.996 293.109V287.768H344.285V292.783C344.285 294.27 344.892 294.968 346.175 294.968C347.533 294.968 348.443 294.02 348.443 292.616V287.768H349.733ZM352.585 289.991C352.585 288.564 353.799 287.608 355.612 287.608C357.327 287.608 358.488 288.466 358.639 289.839H357.395C357.243 289.118 356.553 288.678 355.589 288.678C354.542 288.678 353.867 289.164 353.867 289.915C353.867 290.545 354.292 290.901 355.324 291.129L356.484 291.394C358.085 291.759 358.814 292.457 358.814 293.648C358.814 295.165 357.547 296.152 355.597 296.152C353.73 296.152 352.493 295.279 352.349 293.868H353.662C353.852 294.627 354.58 295.067 355.642 295.067C356.765 295.067 357.478 294.558 357.478 293.769C357.478 293.117 357.076 292.768 356.029 292.533L354.808 292.252C353.321 291.91 352.585 291.159 352.585 289.991ZM365.049 294.961C366.506 294.961 367.432 294.088 367.47 292.677H368.82C368.82 294.794 367.287 296.228 365.049 296.228C362.477 296.228 360.982 294.49 360.982 291.501V289.551C360.982 286.561 362.477 284.824 365.049 284.824C367.356 284.824 368.782 286.227 368.828 288.564H367.47C367.424 287.085 366.445 286.091 365.042 286.091C363.274 286.091 362.348 287.282 362.348 289.551V291.501C362.348 293.769 363.274 294.961 365.049 294.961ZM374.016 296.152C371.838 296.152 370.45 294.733 370.45 292.51V291.265C370.45 289.042 371.838 287.623 374.016 287.623C376.194 287.623 377.582 289.042 377.582 291.265V292.51C377.582 294.733 376.194 296.152 374.016 296.152ZM374.016 288.762C372.605 288.762 371.725 289.763 371.725 291.379V292.388C371.725 294.012 372.605 295.006 374.016 295.006C375.427 295.006 376.307 294.012 376.307 292.388V291.379C376.307 289.763 375.427 288.762 374.016 288.762ZM382.717 296.137C380.813 296.137 379.568 294.763 379.568 292.646V291.114C379.568 289.004 380.813 287.631 382.717 287.631C383.909 287.631 384.789 288.139 385.145 289.042H385.282V284.535H386.594V296H385.327V294.74H385.183C384.758 295.651 383.893 296.137 382.717 296.137ZM383.097 294.961C384.447 294.961 385.32 293.989 385.32 292.464V291.281C385.32 289.763 384.447 288.792 383.097 288.792C381.738 288.792 380.866 289.763 380.866 291.281V292.464C380.866 293.982 381.738 294.961 383.097 294.961ZM394.674 293.876H395.925C395.675 295.234 394.37 296.152 392.64 296.152C390.379 296.152 389.066 294.794 389.066 292.449V291.212C389.066 289.042 390.455 287.616 392.549 287.616C394.689 287.616 395.948 289.035 395.948 291.417V292.221H390.341V292.555C390.341 294.065 391.236 295.036 392.64 295.036C393.68 295.036 394.446 294.596 394.674 293.876ZM392.541 288.724C391.168 288.724 390.341 289.664 390.341 291.243H394.674C394.674 289.672 393.869 288.724 392.541 288.724ZM420.102 296.046C419.351 296.046 418.729 295.416 418.729 294.642C418.729 293.876 419.351 293.246 420.102 293.246C420.853 293.246 421.475 293.876 421.475 294.642C421.475 295.416 420.853 296.046 420.102 296.046ZM431.542 293.876H432.794C432.544 295.234 431.239 296.152 429.509 296.152C427.248 296.152 425.935 294.794 425.935 292.449V291.212C425.935 289.042 427.324 287.616 429.418 287.616C431.558 287.616 432.817 289.035 432.817 291.417V292.221H427.21V292.555C427.21 294.065 428.105 295.036 429.509 295.036C430.548 295.036 431.315 294.596 431.542 293.876ZM429.41 288.724C428.037 288.724 427.21 289.664 427.21 291.243H431.542C431.542 289.672 430.738 288.724 429.41 288.724ZM438.021 287.631C439.197 287.631 440.054 288.117 440.486 289.027H440.623V287.768H441.898V298.777H440.585V294.725H440.441C440.084 295.628 439.212 296.137 438.021 296.137C436.116 296.137 434.872 294.763 434.872 292.654V291.121C434.872 289.004 436.116 287.631 438.021 287.631ZM438.392 288.815C437.034 288.815 436.169 289.786 436.169 291.303V292.487C436.169 294.005 437.034 294.983 438.392 294.983C439.751 294.983 440.615 294.012 440.615 292.487V291.303C440.615 289.786 439.751 288.815 438.392 288.815ZM451.123 287.768V296H449.886V294.551H449.78C449.34 295.575 448.399 296.152 447.147 296.152C445.356 296.152 444.385 295.082 444.385 293.109V287.768H445.675V292.783C445.675 294.27 446.282 294.968 447.564 294.968C448.922 294.968 449.833 294.02 449.833 292.616V287.768H451.123ZM456.136 296.144C454.566 296.144 453.519 295.158 453.519 293.663C453.519 292.206 454.566 291.341 456.44 291.243L458.701 291.129V290.385C458.701 289.353 458.071 288.784 456.925 288.784C455.977 288.784 455.309 289.186 455.097 289.892H453.83C453.981 288.572 455.256 287.669 456.941 287.669C458.875 287.669 459.983 288.655 459.983 290.37V296.008H458.754V294.771H458.625C458.23 295.651 457.335 296.144 456.136 296.144ZM456.508 295.014C457.752 295.014 458.701 294.187 458.701 293.086V292.115L456.584 292.214C455.431 292.267 454.824 292.76 454.824 293.618C454.824 294.483 455.469 295.014 456.508 295.014ZM469.785 296H462.964V294.93H465.778V285.605H462.986V284.535H467.068V294.93H469.785V296ZM472.408 289.991C472.408 288.564 473.622 287.608 475.436 287.608C477.15 287.608 478.311 288.466 478.463 289.839H477.219C477.067 289.118 476.377 288.678 475.413 288.678C474.366 288.678 473.691 289.164 473.691 289.915C473.691 290.545 474.116 290.901 475.147 291.129L476.308 291.394C477.909 291.759 478.638 292.457 478.638 293.648C478.638 295.165 477.371 296.152 475.421 296.152C473.554 296.152 472.317 295.279 472.173 293.868H473.486C473.675 294.627 474.404 295.067 475.466 295.067C476.589 295.067 477.302 294.558 477.302 293.769C477.302 293.117 476.9 292.768 475.853 292.533L474.631 292.252C473.144 291.91 472.408 291.159 472.408 289.991ZM490.35 288.132C490.35 286.205 491.776 284.824 493.772 284.824C495.782 284.824 497.163 286.068 497.163 287.897C497.163 289.035 496.647 289.945 494.902 291.85L492.322 294.657V294.786H497.338V296H490.41V295.074L494.113 290.954C495.501 289.399 495.835 288.815 495.835 287.95C495.835 286.774 495.008 286 493.734 286C492.474 286 491.639 286.842 491.639 288.132V288.177H490.35V288.132ZM152.81 316.25C150.428 316.25 149.115 314.217 149.115 310.529C149.115 306.842 150.428 304.809 152.81 304.809C155.185 304.809 156.506 306.842 156.506 310.529C156.506 314.217 155.185 316.25 152.81 316.25ZM150.443 310.529C150.443 310.962 150.466 311.364 150.496 311.736L154.912 308.048C154.556 306.69 153.842 305.992 152.81 305.992C151.263 305.992 150.443 307.555 150.443 310.529ZM152.81 315.067C154.358 315.067 155.17 313.496 155.17 310.529C155.17 310.089 155.155 309.687 155.117 309.308L150.716 313.026C151.073 314.369 151.779 315.067 152.81 315.067ZM162.028 316.25C159.645 316.25 158.333 314.217 158.333 310.529C158.333 306.842 159.645 304.809 162.028 304.809C164.403 304.809 165.723 306.842 165.723 310.529C165.723 314.217 164.403 316.25 162.028 316.25ZM159.66 310.529C159.66 310.962 159.683 311.364 159.713 311.736L164.129 308.048C163.773 306.69 163.06 305.992 162.028 305.992C160.48 305.992 159.66 307.555 159.66 310.529ZM162.028 315.067C163.575 315.067 164.387 313.496 164.387 310.529C164.387 310.089 164.372 309.687 164.334 309.308L159.934 313.026C160.29 314.369 160.996 315.067 162.028 315.067Z" fill="#00B51D"/>
<path d="M400.014 290.522C400.014 287.95 400.788 285.711 402.297 283.997H403.58C402.009 286.205 401.349 288.139 401.349 290.522C401.349 292.904 402.009 294.839 403.58 297.047H402.297C400.788 295.332 400.014 293.102 400.014 290.522ZM412.539 290.522C412.539 293.102 411.765 295.332 410.255 297.047H408.973C410.543 294.839 411.204 292.904 411.204 290.522C411.204 288.139 410.543 286.205 408.973 283.997H410.255C411.765 285.711 412.539 287.95 412.539 290.522ZM482.969 290.522C482.969 287.95 483.742 285.711 485.252 283.997H486.535C484.964 286.205 484.304 288.139 484.304 290.522C484.304 292.904 484.964 294.839 486.535 297.047H485.252C483.742 295.332 482.969 293.102 482.969 290.522ZM172.891 310.522C172.891 313.102 172.117 315.332 170.608 317.047H169.325C170.896 314.839 171.556 312.904 171.556 310.522C171.556 308.139 170.896 306.205 169.325 303.997H170.608C172.117 305.711 172.891 307.95 172.891 310.522Z" fill="#EEEEEE"/>
<path d="M136.713 315.012V328.039H132.699V327H135.453V316.051H132.714V315.012H136.713ZM113.278 349.039V348H114.105C115.243 348 115.463 347.734 115.463 346.414V344.388C115.463 343.326 116.26 342.621 117.8 342.59V342.469C116.26 342.431 115.463 341.725 115.463 340.663V338.637C115.463 337.317 115.243 337.051 114.105 337.051H113.278V336.012H114.31C116.154 336.012 116.738 336.596 116.738 338.47V340.17C116.738 341.346 117.421 342.021 119.196 341.839V343.212C117.421 343.03 116.738 343.713 116.738 344.882V346.581C116.738 348.455 116.154 349.039 114.31 349.039H113.278ZM94.8437 369.039V368H95.6708C96.8089 368 97.0289 367.734 97.0289 366.414V364.388C97.0289 363.326 97.8256 362.621 99.3659 362.59V362.469C97.8256 362.431 97.0289 361.725 97.0289 360.663V358.637C97.0289 357.317 96.8089 357.051 95.6708 357.051H94.8437V356.012H95.8756C97.7194 356.012 98.3036 356.596 98.3036 358.47V360.17C98.3036 361.346 98.9865 362.021 100.762 361.839V363.212C98.9865 363.03 98.3036 363.713 98.3036 364.882V366.581C98.3036 368.455 97.7194 369.039 95.8756 369.039H94.8437ZM108.674 362.522C108.674 365.102 107.9 367.332 106.39 369.047H105.108C106.679 366.839 107.339 364.904 107.339 362.522C107.339 360.139 106.679 358.205 105.108 355.997H106.39C107.9 357.711 108.674 359.95 108.674 362.522Z" fill="#EEEEEE"/>
<path d="M143.198 329.519H141.977L142.918 324.587H144.625L143.198 329.519Z" fill="white"/>
</g>
<defs>
<filter id="filter0_d_2409_3388" x="2.97081" y="16.8737" width="649.058" height="455.058" filterUnits="userSpaceOnUse" color-interpolation-filters="sRGB">
<feFlood flood-opacity="0" result="BackgroundImageFix"/>
<feColorMatrix in="SourceAlpha" type="matrix" values="0 0 0 0 0 0 0 0 0 0 0 0 0 0 0 0 0 0 127 0" result="hardAlpha"/>
<feOffset dy="5.90292"/>
<feGaussianBlur stdDeviation="29.5146"/>
<feColorMatrix type="matrix" values="0 0 0 0 0 0 0 0 0 0 0 0 0 0 0 0 0 0 0.05 0"/>
<feBlend mode="normal" in2="BackgroundImageFix" result="effect1_dropShadow_2409_3388"/>
<feBlend mode="normal" in="SourceGraphic" in2="effect1_dropShadow_2409_3388" result="shape"/>
</filter>
</defs>
</svg>
