<svg width="68" height="67" viewBox="0 0 68 67" fill="none" xmlns="http://www.w3.org/2000/svg">
<rect width="68" height="67" rx="17.2354" fill="white" fill-opacity="0.09"/>
<path fill-rule="evenodd" clip-rule="evenodd" d="M34.7074 14.5052C34.2406 14.4092 33.759 14.4092 33.2922 14.5052C32.7525 14.6162 32.2702 14.8864 31.8867 15.1012L31.7821 15.1596L18.7854 22.38C18.7495 22.4 18.7124 22.4204 18.6745 22.4413C18.2686 22.6648 17.7581 22.946 17.3662 23.3713C17.0273 23.7391 16.7708 24.1749 16.614 24.6497C16.4325 25.1989 16.4346 25.7817 16.4363 26.2451C16.4365 26.2884 16.4366 26.3307 16.4366 26.3718V40.628C16.4366 40.6691 16.4365 40.7114 16.4363 40.7547C16.4346 41.2181 16.4325 41.8008 16.614 42.35C16.7708 42.8249 17.0273 43.2607 17.3662 43.6285C17.7581 44.0538 18.2686 44.3349 18.6745 44.5585C18.7124 44.5794 18.7495 44.5998 18.7854 44.6198L31.7822 51.8402L31.8867 51.8986C32.2702 52.1134 32.7525 52.3835 33.2922 52.4945C33.759 52.5905 34.2406 52.5905 34.7074 52.4945C35.2471 52.3835 35.7295 52.1134 36.1129 51.8986L36.2175 51.8402L49.2142 44.6198C49.2301 44.6109 49.2462 44.602 49.2625 44.593C49.2831 44.5817 49.3039 44.5702 49.3251 44.5585C49.731 44.3349 50.2415 44.0538 50.6334 43.6285C50.9723 43.2607 51.2288 42.8249 51.3856 42.35C51.5671 41.8008 51.565 41.2181 51.5633 40.7547C51.5631 40.7114 51.563 40.6691 51.563 40.628V26.3718C51.563 26.3307 51.5631 26.2884 51.5633 26.2451C51.565 25.7817 51.5671 25.1989 51.3856 24.6497C51.2288 24.1749 50.9723 23.7391 50.6334 23.3713C50.2415 22.946 49.731 22.6648 49.3251 22.4412L49.3237 22.4405C49.2862 22.4198 49.2497 22.3997 49.2142 22.38L36.2175 15.1596L36.1129 15.1012C35.7294 14.8864 35.2471 14.6162 34.7074 14.5052ZM33.488 18.2302C33.7542 18.0823 33.8901 18.0076 33.9914 17.9587L33.9998 17.9547L34.0082 17.9587C34.1096 18.0076 34.2454 18.0823 34.5116 18.2302L46.1901 24.7183L33.9997 31.4907L21.8094 24.7183L33.488 18.2302ZM19.9493 27.7032L32.2434 34.5333L32.2435 48.0782L20.4913 41.5492C20.2104 41.3931 20.0669 41.3126 19.9663 41.2485L19.9578 41.243L19.9572 41.233C19.95 41.1139 19.9493 40.9494 19.9493 40.628V27.7032Z" fill="url(#paint0_linear_2409_3486)"/>
<defs>
<linearGradient id="paint0_linear_2409_3486" x1="36.9428" y1="68.4384" x2="-1.06236" y2="33.4288" gradientUnits="userSpaceOnUse">
<stop stop-color="#FB432C"/>
<stop offset="1" stop-color="#FF591E"/>
</linearGradient>
</defs>
</svg>
