<svg width="94" height="93" viewBox="0 0 94 93" fill="none" xmlns="http://www.w3.org/2000/svg">
<rect x="16" y="16" width="62" height="61" rx="15.8298" fill="url(#paint0_linear_2409_3868)"/>
<path fill-rule="evenodd" clip-rule="evenodd" d="M47.6378 29.4529C47.2188 29.3668 46.7867 29.3668 46.3677 29.4529C45.8834 29.5525 45.4505 29.795 45.1064 29.9878L45.0126 30.0402L33.3488 36.52C33.3166 36.5379 33.2833 36.5562 33.2493 36.575C32.885 36.7757 32.4269 37.028 32.0752 37.4097C31.771 37.7397 31.5409 38.1308 31.4001 38.557C31.2372 39.0498 31.2391 39.5728 31.2407 39.9887C31.2408 40.0276 31.2409 40.0655 31.2409 40.1024V52.8964C31.2409 52.9333 31.2408 52.9713 31.2407 53.0101C31.2391 53.426 31.2372 53.949 31.4001 54.4419C31.5409 54.868 31.771 55.2591 32.0752 55.5892C32.4269 55.9709 32.885 56.2232 33.2493 56.4238C33.2833 56.4426 33.3166 56.4609 33.3488 56.4788L45.0126 62.9587L45.1064 63.0111C45.4505 63.2038 45.8834 63.4463 46.3677 63.5459C46.7867 63.632 47.2188 63.632 47.6378 63.5459C48.1221 63.4463 48.555 63.2038 48.8992 63.0111L48.993 62.9587L60.6567 56.4788C60.671 56.4709 60.6854 56.4629 60.7001 56.4548C60.7185 56.4446 60.7372 56.4343 60.7562 56.4238C61.1205 56.2232 61.5786 55.9709 61.9304 55.5892C62.2345 55.2591 62.4647 54.868 62.6055 54.4419C62.7683 53.949 62.7664 53.426 62.7649 53.0101C62.7647 52.9712 62.7646 52.9333 62.7646 52.8964V40.1024C62.7646 40.0655 62.7647 40.0276 62.7649 39.9887C62.7664 39.5728 62.7683 39.0498 62.6055 38.557C62.4647 38.1308 62.2345 37.7397 61.9304 37.4097C61.5786 37.0279 61.1205 36.7756 60.7562 36.575L60.755 36.5743C60.7214 36.5558 60.6886 36.5377 60.6567 36.52L48.993 30.0402L48.8992 29.9878C48.555 29.795 48.1221 29.5525 47.6378 29.4529ZM46.5435 32.7958C46.7823 32.6631 46.9043 32.5961 46.9952 32.5522L47.0028 32.5486L47.0103 32.5522C47.1013 32.5961 47.2232 32.6631 47.462 32.7958L57.9428 38.6185L47.0027 44.6963L36.0627 38.6185L46.5435 32.7958ZM34.3933 41.2972L45.4265 47.4268L45.4266 59.5825L34.8797 53.7231C34.6276 53.5831 34.4989 53.5108 34.4086 53.4533L34.401 53.4484L34.4004 53.4393C34.394 53.3325 34.3933 53.1848 34.3933 52.8964V41.2972Z" fill="white"/>
<defs>
<linearGradient id="paint0_linear_2409_3868" x1="52.1944" y1="102.389" x2="-8.79757" y2="40.3976" gradientUnits="userSpaceOnUse">
<stop stop-color="#FB432C"/>
<stop offset="1" stop-color="#FF591E"/>
</linearGradient>
</defs>
</svg>
