<svg width="83" height="27" viewBox="0 0 83 27" fill="none" xmlns="http://www.w3.org/2000/svg">
<rect y="1.5" width="24" height="24" rx="12" fill="#F6F6F6"/>
<path d="M8.23889 13.5002L10.9056 16.1668L16.2389 10.8335" stroke="#282828" stroke-width="1.5" stroke-linecap="round" stroke-linejoin="round"/>
<path d="M42.7727 11.5H41.3636C41.2803 11.0947 41.1345 10.7386 40.9261 10.4318C40.7216 10.125 40.4716 9.86742 40.1761 9.65909C39.8845 9.44697 39.5606 9.28788 39.2045 9.18182C38.8485 9.07576 38.4773 9.02273 38.0909 9.02273C37.3864 9.02273 36.7481 9.20076 36.1761 9.55682C35.608 9.91288 35.1553 10.4375 34.8182 11.1307C34.4848 11.8239 34.3182 12.6742 34.3182 13.6818C34.3182 14.6894 34.4848 15.5398 34.8182 16.233C35.1553 16.9261 35.608 17.4508 36.1761 17.8068C36.7481 18.1629 37.3864 18.3409 38.0909 18.3409C38.4773 18.3409 38.8485 18.2879 39.2045 18.1818C39.5606 18.0758 39.8845 17.9186 40.1761 17.7102C40.4716 17.4981 40.7216 17.2386 40.9261 16.9318C41.1345 16.6212 41.2803 16.2652 41.3636 15.8636H42.7727C42.6667 16.4583 42.4735 16.9905 42.1932 17.4602C41.9129 17.9299 41.5644 18.3295 41.1477 18.6591C40.7311 18.9848 40.2633 19.233 39.7443 19.4034C39.2292 19.5739 38.678 19.6591 38.0909 19.6591C37.0985 19.6591 36.2159 19.4167 35.4432 18.9318C34.6705 18.447 34.0625 17.7576 33.6193 16.8636C33.1761 15.9697 32.9545 14.9091 32.9545 13.6818C32.9545 12.4545 33.1761 11.3939 33.6193 10.5C34.0625 9.60606 34.6705 8.91667 35.4432 8.43182C36.2159 7.94697 37.0985 7.70455 38.0909 7.70455C38.678 7.70455 39.2292 7.78977 39.7443 7.96023C40.2633 8.13068 40.7311 8.38068 41.1477 8.71023C41.5644 9.03598 41.9129 9.43371 42.1932 9.90341C42.4735 10.3693 42.6667 10.9015 42.7727 11.5ZM48.4134 19.6818C47.6255 19.6818 46.9342 19.4943 46.3395 19.1193C45.7486 18.7443 45.2865 18.2197 44.9531 17.5455C44.6236 16.8712 44.4588 16.0833 44.4588 15.1818C44.4588 14.2727 44.6236 13.4792 44.9531 12.8011C45.2865 12.1231 45.7486 11.5966 46.3395 11.2216C46.9342 10.8466 47.6255 10.6591 48.4134 10.6591C49.2012 10.6591 49.8906 10.8466 50.4815 11.2216C51.0762 11.5966 51.5384 12.1231 51.8679 12.8011C52.2012 13.4792 52.3679 14.2727 52.3679 15.1818C52.3679 16.0833 52.2012 16.8712 51.8679 17.5455C51.5384 18.2197 51.0762 18.7443 50.4815 19.1193C49.8906 19.4943 49.2012 19.6818 48.4134 19.6818ZM48.4134 18.4773C49.0118 18.4773 49.5043 18.3239 49.8906 18.017C50.277 17.7102 50.563 17.3068 50.7486 16.8068C50.9342 16.3068 51.027 15.7652 51.027 15.1818C51.027 14.5985 50.9342 14.0549 50.7486 13.5511C50.563 13.0473 50.277 12.6402 49.8906 12.3295C49.5043 12.0189 49.0118 11.8636 48.4134 11.8636C47.8149 11.8636 47.3224 12.0189 46.9361 12.3295C46.5497 12.6402 46.2637 13.0473 46.0781 13.5511C45.8925 14.0549 45.7997 14.5985 45.7997 15.1818C45.7997 15.7652 45.8925 16.3068 46.0781 16.8068C46.2637 17.3068 46.5497 17.7102 46.9361 18.017C47.3224 18.3239 47.8149 18.4773 48.4134 18.4773ZM57.7102 19.6818C56.983 19.6818 56.3409 19.4981 55.7841 19.1307C55.2273 18.7595 54.7917 18.2367 54.4773 17.5625C54.1629 16.8845 54.0057 16.0833 54.0057 15.1591C54.0057 14.2424 54.1629 13.447 54.4773 12.7727C54.7917 12.0985 55.2292 11.5777 55.7898 11.2102C56.3504 10.8428 56.9981 10.6591 57.733 10.6591C58.3011 10.6591 58.75 10.7538 59.0795 10.9432C59.4129 11.1288 59.6667 11.3409 59.8409 11.5795C60.0189 11.8144 60.1572 12.0076 60.2557 12.1591H60.3693V7.86364H61.7102V19.5H60.4148V18.1591H60.2557C60.1572 18.3182 60.017 18.5189 59.8352 18.7614C59.6534 19 59.3939 19.214 59.0568 19.4034C58.7197 19.589 58.2708 19.6818 57.7102 19.6818ZM57.892 18.4773C58.4299 18.4773 58.8845 18.3371 59.2557 18.0568C59.6269 17.7727 59.9091 17.3807 60.1023 16.8807C60.2955 16.3769 60.392 15.7955 60.392 15.1364C60.392 14.4848 60.2973 13.9148 60.108 13.4261C59.9186 12.9337 59.6383 12.5511 59.267 12.2784C58.8958 12.0019 58.4375 11.8636 57.892 11.8636C57.3239 11.8636 56.8504 12.0095 56.4716 12.3011C56.0966 12.589 55.8144 12.9811 55.625 13.4773C55.4394 13.9697 55.3466 14.5227 55.3466 15.1364C55.3466 15.7576 55.4413 16.322 55.6307 16.8295C55.8239 17.3333 56.108 17.7348 56.483 18.0341C56.8617 18.3295 57.3314 18.4773 57.892 18.4773ZM68.0114 19.6818C67.1705 19.6818 66.4451 19.4962 65.8352 19.125C65.2292 18.75 64.7614 18.2273 64.4318 17.5568C64.1061 16.8826 63.9432 16.0985 63.9432 15.2045C63.9432 14.3106 64.1061 13.5227 64.4318 12.8409C64.7614 12.1553 65.2197 11.6212 65.8068 11.2386C66.3977 10.8523 67.0871 10.6591 67.875 10.6591C68.3295 10.6591 68.7784 10.7348 69.2216 10.8864C69.6648 11.0379 70.0682 11.2841 70.4318 11.625C70.7955 11.9621 71.0852 12.4091 71.3011 12.9659C71.517 13.5227 71.625 14.2083 71.625 15.0227V15.5909H64.8977V14.4318H70.2614C70.2614 13.9394 70.1629 13.5 69.9659 13.1136C69.7727 12.7273 69.4962 12.4223 69.1364 12.1989C68.7803 11.9754 68.3598 11.8636 67.875 11.8636C67.3409 11.8636 66.8788 11.9962 66.4886 12.2614C66.1023 12.5227 65.8049 12.8636 65.5966 13.2841C65.3883 13.7045 65.2841 14.1553 65.2841 14.6364V15.4091C65.2841 16.0682 65.3977 16.6269 65.625 17.0852C65.8561 17.5398 66.1761 17.8864 66.5852 18.125C66.9943 18.3598 67.4697 18.4773 68.0114 18.4773C68.3636 18.4773 68.6818 18.428 68.9659 18.3295C69.2538 18.2273 69.5019 18.0758 69.7102 17.875C69.9186 17.6705 70.0795 17.4167 70.1932 17.1136L71.4886 17.4773C71.3523 17.9167 71.1231 18.303 70.8011 18.6364C70.4792 18.9659 70.0814 19.2235 69.608 19.4091C69.1345 19.5909 68.6023 19.6818 68.0114 19.6818ZM76.9602 19.6818C76.233 19.6818 75.5909 19.4981 75.0341 19.1307C74.4773 18.7595 74.0417 18.2367 73.7273 17.5625C73.4129 16.8845 73.2557 16.0833 73.2557 15.1591C73.2557 14.2424 73.4129 13.447 73.7273 12.7727C74.0417 12.0985 74.4792 11.5777 75.0398 11.2102C75.6004 10.8428 76.2481 10.6591 76.983 10.6591C77.5511 10.6591 78 10.7538 78.3295 10.9432C78.6629 11.1288 78.9167 11.3409 79.0909 11.5795C79.2689 11.8144 79.4072 12.0076 79.5057 12.1591H79.6193V7.86364H80.9602V19.5H79.6648V18.1591H79.5057C79.4072 18.3182 79.267 18.5189 79.0852 18.7614C78.9034 19 78.6439 19.214 78.3068 19.4034C77.9697 19.589 77.5208 19.6818 76.9602 19.6818ZM77.142 18.4773C77.6799 18.4773 78.1345 18.3371 78.5057 18.0568C78.8769 17.7727 79.1591 17.3807 79.3523 16.8807C79.5455 16.3769 79.642 15.7955 79.642 15.1364C79.642 14.4848 79.5473 13.9148 79.358 13.4261C79.1686 12.9337 78.8883 12.5511 78.517 12.2784C78.1458 12.0019 77.6875 11.8636 77.142 11.8636C76.5739 11.8636 76.1004 12.0095 75.7216 12.3011C75.3466 12.589 75.0644 12.9811 74.875 13.4773C74.6894 13.9697 74.5966 14.5227 74.5966 15.1364C74.5966 15.7576 74.6913 16.322 74.8807 16.8295C75.0739 17.3333 75.358 17.7348 75.733 18.0341C76.1117 18.3295 76.5814 18.4773 77.142 18.4773Z" fill="#282828"/>
</svg>
