<svg width="161" height="41" viewBox="0 0 161 41" fill="none" xmlns="http://www.w3.org/2000/svg">
<g clip-path="url(#clip0_2409_3345)">
<path fill-rule="evenodd" clip-rule="evenodd" d="M28.5078 33.2184C26.1017 35.6245 22.4183 35.6245 15.7897 35.6245C9.16239 35.6245 5.47892 35.6231 3.0714 33.2184C0.666626 30.8121 0.666626 27.1274 0.666626 20.5001C0.666626 13.8743 0.666626 10.188 3.0714 7.78325C5.47892 5.37573 9.16239 5.37573 15.7897 5.37573C22.4183 5.37573 26.1017 5.37573 28.5078 7.78325C30.9154 10.1894 30.9154 13.8728 30.9154 20.5001C30.9154 27.1274 30.9154 30.8121 28.5078 33.2184ZM17.2361 18.5573L8.10644 18.5394L8.10507 20.7875L16.7219 20.804L16.2145 23.0479L8.10507 23.0314V25.2781L15.7071 25.2945H15.6948C15.4006 26.4275 16.2296 27.5509 17.3681 27.5509H18.9465L19.8182 25.2945H15.7071L16.2145 23.0506L21.3815 23.0603L22.1831 20.8136L16.7329 20.804L17.2429 18.5573L24.6209 18.5216L25.5352 16.2845L17.753 16.3107L17.2361 18.5573ZM16.4234 14.0558L8.10644 14.0379L8.10507 16.2859L17.7517 16.3025L17.8383 15.9106C18.0542 14.9646 17.3639 14.0558 16.4234 14.0558Z" fill="black"/>
<path d="M54.437 29.2438H58.3033L58.6772 26.9318H59.3805C59.9427 28.6312 61.465 29.4795 63.0361 29.4795C66.2912 29.4795 68.2837 27.3573 68.2837 22.8297C68.2837 18.8434 66.6428 16.1799 63.1282 16.1799C61.4427 16.1799 59.9427 17.1928 59.3805 18.7011H58.6772L58.9116 15.1641V11.5559H54.437V29.2438ZM58.9116 23.2301V22.4516C58.9116 20.7996 59.8255 19.7866 61.4189 19.7866C62.8016 19.7866 63.7379 20.4005 63.7379 21.98V23.7017C63.7379 24.9994 63.1059 25.8714 61.4413 25.8714C59.7795 25.8714 58.9116 24.8571 58.9116 23.2301ZM69.4543 22.852C69.4543 26.8383 72.0551 29.4795 76.0135 29.4795C79.2952 29.4795 81.7062 27.7341 82.0358 25.0468H77.7715C77.6543 25.7765 76.905 26.2007 75.874 26.2007C74.8191 26.2007 73.9512 25.5421 73.9512 24.5501V23.8901H81.8949C82.0358 23.3962 82.0812 22.7111 82.0812 22.0512C82.0812 18.2309 79.3413 16.1784 75.874 16.1784C72.2658 16.1784 69.4543 18.5839 69.4543 22.852ZM73.9512 21.2014V20.9433C73.9512 20.0936 74.748 19.4796 75.8265 19.4796C76.905 19.4796 77.6083 20.0936 77.6083 20.9433V21.2014H73.9512ZM92.5138 16.3431C91.0849 16.3431 89.9832 17.1691 89.6314 19.2201H88.9285L88.3896 16.4142H82.5086V20.0224H84.4549V29.2438H88.9293V24.0087C88.9293 21.32 90.593 20.5652 92.4891 20.5652C92.7486 20.5652 93.0065 20.5889 93.2867 20.6126V16.4142C93.0328 16.3626 92.7733 16.3389 92.5138 16.3431ZM94.476 16.4142V33.1826H98.9504V30.4939L98.7156 26.9555H99.4193C99.9813 28.4652 101.482 29.4795 103.169 29.4795C106.681 29.4795 108.323 26.8146 108.323 22.8297C108.323 18.3021 106.33 16.1799 103.073 16.1799C101.505 16.1799 99.9813 17.0282 99.4193 18.7248H98.7156L98.3407 16.4142H94.476ZM98.9504 22.4278C98.9504 20.801 99.8181 19.788 101.482 19.788C103.145 19.788 103.777 20.66 103.777 21.9563V23.678C103.777 25.2589 102.841 25.8714 101.458 25.8714C99.8642 25.8714 98.9504 24.8571 98.9504 23.2064V22.4278ZM113.88 25.7542V11.5559H109.428V25.8253C109.428 27.8764 110.249 29.2452 112.825 29.2452H116.784V25.7556H113.88V25.7542ZM117.608 25.6342C117.608 27.9936 119.317 29.4795 121.942 29.4795C124.12 29.4795 125.643 28.4652 126.136 26.9555H126.767V29.2438H131.454V25.9412H129.836V20.8261C129.836 18.0439 128.244 16.1799 124.167 16.1799C120.418 16.1799 118.24 17.8067 118.38 20.967H122.48C122.409 19.9052 123.043 19.5522 123.957 19.5522C124.823 19.5522 125.384 19.9052 125.384 20.8024V21.6981L121.825 21.9339C119.317 22.1 117.607 23.2776 117.607 25.637L117.608 25.6342ZM122.105 25.0231C122.105 24.5277 122.458 24.0562 123.254 24.0087L125.385 23.8664V25.3523C125.034 25.8951 124.331 26.2481 123.464 26.2481C122.526 26.2481 122.107 25.8477 122.107 25.3049L122.105 25.0231ZM132.811 29.2438H137.287V22.3804C137.287 20.8722 138.036 19.8104 139.535 19.8104C140.8 19.8104 141.503 20.5414 141.503 22.1223V29.2438H146V20.5414C146 17.924 144.573 16.1784 142.018 16.1784C140.051 16.1784 138.645 17.0979 137.989 18.7011H137.287L136.747 16.4142H132.811V29.2438ZM147.438 22.852C147.438 26.8383 150.04 29.4795 153.999 29.4795C157.278 29.4795 159.692 27.7341 160.02 25.0468H155.756C155.639 25.7765 154.89 26.2007 153.858 26.2007C152.804 26.2007 151.937 25.5421 151.937 24.5501V23.8901H159.88C160.02 23.3962 160.067 22.7111 160.067 22.0512C160.067 18.2309 157.326 16.1784 153.858 16.1784C150.251 16.1784 147.438 18.5839 147.438 22.852ZM151.937 21.2014V20.9433C151.937 20.0936 152.734 19.4796 153.811 19.4796C154.89 19.4796 155.593 20.0936 155.593 20.9433V21.2014H151.937ZM44.1022 16.4157H52.9329V29.2438H48.4374V20.021H44.1022V29.2424H39.6053V20.021H37.2835V16.4157H39.6053V15.3105C39.6053 15.012 39.6094 14.793 39.6164 14.6548C39.6248 14.5097 39.6485 14.3297 39.6862 14.1134C39.7308 13.8986 39.8006 13.6684 39.8913 13.4228C40.342 12.1768 41.4903 11.5573 43.3348 11.5573H46.9834V15.0455H44.1022V16.4157ZM48.4597 15.0455V11.5559H52.9329V15.0455H48.4597Z" fill="black"/>
</g>
<defs>
<clipPath id="clip0_2409_3345">
<rect width="160" height="40" fill="white" transform="translate(0.666626 0.5)"/>
</clipPath>
</defs>
</svg>
