<svg width="140" height="29" viewBox="0 0 140 29" fill="none" xmlns="http://www.w3.org/2000/svg">
<g clip-path="url(#clip0_2409_3339)">
<path d="M135.739 5.19238H140V23.7405H135.521L128.857 11.8128V23.7405H124.569V5.19238H129.048L135.739 17.2569V5.19238ZM107.69 4.69995C113.835 4.69995 117.468 9.35067 117.468 14.4391C117.468 19.5275 113.808 24.1782 107.69 24.1782C101.518 24.1782 97.8852 19.5275 97.8852 14.4391C97.8852 9.37802 101.545 4.69995 107.69 4.69995ZM113.126 14.4664C113.126 11.4298 111.049 8.58466 107.717 8.58466C104.331 8.58466 102.31 11.4298 102.31 14.4664C102.31 17.5031 104.358 20.3482 107.717 20.3482C111.049 20.3209 113.126 17.5031 113.126 14.4664ZM38.5369 8.88559V5.19238H51.2095V8.88559H47.0035V23.7131H42.7155V8.88559H38.5369ZM83.9293 12.8524H90.9482V16.2173H83.9566V20.2935H90.9482V23.7405H79.6684V5.19238H90.9482V8.63938H83.9566V12.8524H83.9293ZM65.6301 5.19238C69.7269 5.19238 72.3758 8.28373 72.3758 11.8949C72.3758 14.4938 71.0108 16.7918 68.689 17.8861L72.4031 23.7405H67.4327L64.1553 18.5974H62.1342V23.7405H57.8462V5.19238H65.6301ZM68.0336 11.8949C68.0336 10.1714 66.8592 8.6941 65.0839 8.6941H62.1615V15.0957H65.0839C66.8865 15.0957 68.0336 13.6184 68.0336 11.8949ZM30.1522 21.4699H23.5701L22.8599 23.7131H18.2988L24.9083 5.16502H28.8412L35.5326 23.7131H30.8896L30.1522 21.4699ZM26.8748 10.4723L24.6079 18.105H29.1143L26.8748 10.4723ZM7.75656 5.19238C11.8533 5.19238 14.5025 8.28373 14.5025 11.8949C14.5025 15.506 11.8533 18.5974 7.75656 18.5974H4.28794V23.7405H0V5.19238H7.75656ZM10.1873 11.8949C10.1873 10.1714 9.01285 8.6941 7.23758 8.6941H4.28794V15.0957H7.21028C9.01285 15.0957 10.1873 13.6184 10.1873 11.8949Z" fill="black"/>
</g>
<defs>
<clipPath id="clip0_2409_3339">
<rect width="140" height="28" fill="white" transform="translate(0 0.5)"/>
</clipPath>
</defs>
</svg>
