<svg width="120" height="61" viewBox="0 0 120 61" fill="none" xmlns="http://www.w3.org/2000/svg">
<path fill-rule="evenodd" clip-rule="evenodd" d="M63.0836 22.8519C62.08 22.0079 60.3674 21.5864 57.9446 21.5864H52.48V38.4737H56.5661V33.181H58.3965C60.618 33.181 62.2471 32.6921 63.2838 31.7133C64.4516 30.6167 65.0393 29.1566 65.0393 27.3338C65.0393 25.4437 64.3871 23.9494 63.0836 22.8519ZM58.2949 29.3598H56.5661V25.4076H58.1193C60.0085 25.4076 60.9532 26.0703 60.9532 27.3956C60.9532 28.7038 60.0665 29.3598 58.2949 29.3598ZM72.0314 21.5854H67.7705V38.4728H76.9701V34.6506H72.0314V21.5854ZM85.3177 21.5854L78.6251 38.4728H83.2124L84.0896 36.0177H89.9051L90.7071 38.4728H95.3461L88.7005 21.5854H85.3177ZM85.2676 32.599L87.0228 26.8269L88.7506 32.599H85.2676Z" fill="black"/>
<path fill-rule="evenodd" clip-rule="evenodd" d="M97.4742 38.4729H101.736V21.5856H97.4742V38.4729ZM118.282 24.7507C117.744 23.9702 117.052 23.3072 116.25 22.8017C114.964 21.991 113.209 21.5865 110.986 21.5865H105.371V38.4729H111.939C114.312 38.4729 116.217 37.6973 117.654 36.1441C119.092 34.5919 119.809 32.5318 119.809 29.9657C119.809 27.9245 119.301 26.1862 118.282 24.7507ZM111.463 34.6498H109.633V25.4087H111.488C112.792 25.4087 113.793 25.8169 114.496 26.6305C115.198 27.4441 115.549 28.5986 115.549 30.0929C115.549 33.1308 114.187 34.6498 111.463 34.6498ZM17.8832 7.40771L4.07277 11.0248L0.266749 24.9131L5.02688 29.8005L0.18985 34.6071L3.77182 48.5562L17.5224 52.3982L22.3604 47.5906L27.1205 52.477L40.931 48.86L44.7361 34.9707L39.9769 30.0853L44.8139 25.2786L41.2319 11.3286L27.4794 7.48651L22.6433 12.2932L17.8832 7.40771ZM9.40824 13.6963L16.6832 11.79L19.8646 15.0558L15.225 19.6659L9.40824 13.6963ZM25.3785 15.0995L28.611 11.8878L35.8547 13.9118L29.943 19.7856L25.3785 15.0995ZM4.6253 23.7729L6.62941 16.4581L12.4443 22.4277L7.80571 27.0378L4.6253 23.7729ZM32.6762 22.5929L38.588 16.7172L40.4734 24.0653L37.2418 27.278L32.6762 22.5929ZM17.9592 22.4723L22.5987 17.8621L27.1623 22.5482L22.5237 27.1583L17.9592 22.4723ZM10.5408 29.8441L15.1794 25.234L19.7459 29.9201L15.1054 34.5302L10.5408 29.8441ZM25.2589 29.9647L29.8975 25.3545L34.462 30.0406L29.8224 34.6507L25.2589 29.9647ZM4.52846 35.8195L7.76204 32.6058L12.3256 37.2929L6.4158 43.1656L4.52846 35.8195ZM17.8395 37.3365L22.4791 32.7264L27.0437 37.4125L22.4051 42.0226L17.8395 37.3365ZM32.5566 37.4581L37.1962 32.8479L40.3775 36.1128L38.3743 43.4277L32.5566 37.4581ZM9.14902 45.9739L15.0598 40.0982L19.6262 44.7843L16.3927 47.9979L9.14902 45.9739ZM25.1392 44.8289L29.7779 40.2188L35.5937 46.1893L28.3196 48.0948L25.1392 44.8289Z" fill="black"/>
</svg>
