<svg width="32" height="40" viewBox="0 0 32 40" fill="none" xmlns="http://www.w3.org/2000/svg">
<path d="M10.667 11.3334C10.667 12.4379 9.77155 13.3334 8.66699 13.3334C7.56243 13.3334 6.66699 12.4379 6.66699 11.3334C6.66699 10.2288 7.56243 9.33337 8.66699 9.33337C9.77155 9.33337 10.667 10.2288 10.667 11.3334Z" stroke="white" stroke-width="1.33333" stroke-linecap="round" stroke-linejoin="round"/>
<path d="M10.667 20.6666C10.667 21.771 9.77155 22.6666 8.66699 22.6666C7.56243 22.6666 6.66699 21.771 6.66699 20.6666C6.66699 19.5622 7.56243 18.6666 8.66699 18.6666C9.77155 18.6666 10.667 19.5622 10.667 20.6666Z" stroke="white" stroke-width="1.33333" stroke-linecap="round" stroke-linejoin="round"/>
<path d="M16.333 11.3334H25.6663" stroke="white" stroke-width="2" stroke-linecap="round" stroke-linejoin="round"/>
<path d="M16.333 20.6666H25.6663" stroke="white" stroke-width="2" stroke-linecap="round" stroke-linejoin="round"/>
</svg>
