<svg width="130" height="27" viewBox="0 0 130 27" fill="none" xmlns="http://www.w3.org/2000/svg">
<rect y="1.5" width="24" height="24" rx="12" fill="#F6F6F6"/>
<path d="M8.23889 13.5002L10.9056 16.1668L16.2389 10.8335" stroke="#282828" stroke-width="1.5" stroke-linecap="round" stroke-linejoin="round"/>
<path d="M37.2955 7.86364V19.5H35.8864V9.34091H35.8182L32.9773 11.2273V9.79545L35.8864 7.86364H37.2955ZM44.4375 19.6591C43.5814 19.6591 42.8523 19.4261 42.25 18.9602C41.6477 18.4905 41.1875 17.8106 40.8693 16.9205C40.5511 16.0265 40.392 14.947 40.392 13.6818C40.392 12.4242 40.5511 11.3504 40.8693 10.4602C41.1913 9.56629 41.6534 8.88447 42.2557 8.41477C42.8617 7.94129 43.589 7.70455 44.4375 7.70455C45.286 7.70455 46.0114 7.94129 46.6136 8.41477C47.2197 8.88447 47.6818 9.56629 48 10.4602C48.322 11.3504 48.483 12.4242 48.483 13.6818C48.483 14.947 48.3239 16.0265 48.0057 16.9205C47.6875 17.8106 47.2273 18.4905 46.625 18.9602C46.0227 19.4261 45.2936 19.6591 44.4375 19.6591ZM44.4375 18.4091C45.286 18.4091 45.9451 18 46.4148 17.1818C46.8845 16.3636 47.1193 15.197 47.1193 13.6818C47.1193 12.6742 47.0114 11.8163 46.7955 11.108C46.5833 10.3996 46.2765 9.85985 45.875 9.48864C45.4773 9.11742 44.9981 8.93182 44.4375 8.93182C43.5966 8.93182 42.9394 9.34659 42.4659 10.1761C41.9924 11.0019 41.7557 12.1705 41.7557 13.6818C41.7557 14.6894 41.8617 15.5455 42.0739 16.25C42.286 16.9545 42.5909 17.4905 42.9886 17.858C43.3902 18.2254 43.8731 18.4091 44.4375 18.4091ZM54.4375 19.6591C53.5814 19.6591 52.8523 19.4261 52.25 18.9602C51.6477 18.4905 51.1875 17.8106 50.8693 16.9205C50.5511 16.0265 50.392 14.947 50.392 13.6818C50.392 12.4242 50.5511 11.3504 50.8693 10.4602C51.1913 9.56629 51.6534 8.88447 52.2557 8.41477C52.8617 7.94129 53.589 7.70455 54.4375 7.70455C55.286 7.70455 56.0114 7.94129 56.6136 8.41477C57.2197 8.88447 57.6818 9.56629 58 10.4602C58.322 11.3504 58.483 12.4242 58.483 13.6818C58.483 14.947 58.3239 16.0265 58.0057 16.9205C57.6875 17.8106 57.2273 18.4905 56.625 18.9602C56.0227 19.4261 55.2936 19.6591 54.4375 19.6591ZM54.4375 18.4091C55.286 18.4091 55.9451 18 56.4148 17.1818C56.8845 16.3636 57.1193 15.197 57.1193 13.6818C57.1193 12.6742 57.0114 11.8163 56.7955 11.108C56.5833 10.3996 56.2765 9.85985 55.875 9.48864C55.4773 9.11742 54.9981 8.93182 54.4375 8.93182C53.5966 8.93182 52.9394 9.34659 52.4659 10.1761C51.9924 11.0019 51.7557 12.1705 51.7557 13.6818C51.7557 14.6894 51.8617 15.5455 52.0739 16.25C52.286 16.9545 52.5909 17.4905 52.9886 17.858C53.3902 18.2254 53.8731 18.4091 54.4375 18.4091ZM66.5739 17.3182V16.7045C66.5739 16.2803 66.661 15.892 66.8352 15.5398C67.0133 15.1837 67.2708 14.8996 67.608 14.6875C67.9489 14.4716 68.3617 14.3636 68.8466 14.3636C69.339 14.3636 69.7519 14.4716 70.0852 14.6875C70.4186 14.8996 70.6705 15.1837 70.8409 15.5398C71.0114 15.892 71.0966 16.2803 71.0966 16.7045V17.3182C71.0966 17.7424 71.0095 18.1326 70.8352 18.4886C70.6648 18.8409 70.411 19.125 70.0739 19.3409C69.7405 19.553 69.3314 19.6591 68.8466 19.6591C68.3542 19.6591 67.9394 19.553 67.6023 19.3409C67.2652 19.125 67.0095 18.8409 66.8352 18.4886C66.661 18.1326 66.5739 17.7424 66.5739 17.3182ZM67.733 16.7045V17.3182C67.733 17.6705 67.8163 17.9867 67.983 18.267C68.1496 18.5436 68.4375 18.6818 68.8466 18.6818C69.2443 18.6818 69.5246 18.5436 69.6875 18.267C69.8542 17.9867 69.9375 17.6705 69.9375 17.3182V16.7045C69.9375 16.3523 69.858 16.0379 69.6989 15.7614C69.5398 15.4811 69.2557 15.3409 68.8466 15.3409C68.4489 15.3409 68.1629 15.4811 67.9886 15.7614C67.8182 16.0379 67.733 16.3523 67.733 16.7045ZM60.7784 10.6591V10.0455C60.7784 9.62121 60.8655 9.23295 61.0398 8.88068C61.2178 8.52462 61.4754 8.24053 61.8125 8.02841C62.1534 7.8125 62.5663 7.70455 63.0511 7.70455C63.5436 7.70455 63.9564 7.8125 64.2898 8.02841C64.6231 8.24053 64.875 8.52462 65.0455 8.88068C65.2159 9.23295 65.3011 9.62121 65.3011 10.0455V10.6591C65.3011 11.0833 65.214 11.4735 65.0398 11.8295C64.8693 12.1818 64.6155 12.4659 64.2784 12.6818C63.9451 12.8939 63.536 13 63.0511 13C62.5587 13 62.1439 12.8939 61.8068 12.6818C61.4697 12.4659 61.214 12.1818 61.0398 11.8295C60.8655 11.4735 60.7784 11.0833 60.7784 10.6591ZM61.9375 10.0455V10.6591C61.9375 11.0114 62.0208 11.3277 62.1875 11.608C62.3542 11.8845 62.642 12.0227 63.0511 12.0227C63.4489 12.0227 63.7292 11.8845 63.892 11.608C64.0587 11.3277 64.142 11.0114 64.142 10.6591V10.0455C64.142 9.69318 64.0625 9.37879 63.9034 9.10227C63.7443 8.82197 63.4602 8.68182 63.0511 8.68182C62.6534 8.68182 62.3674 8.82197 62.1932 9.10227C62.0227 9.37879 61.9375 9.69318 61.9375 10.0455ZM61.2102 19.5L69.2102 7.86364H70.5057L62.5057 19.5H61.2102ZM84.7102 10.7727C84.642 10.197 84.3655 9.75 83.8807 9.43182C83.3958 9.11364 82.8011 8.95455 82.0966 8.95455C81.5814 8.95455 81.1307 9.03788 80.7443 9.20455C80.3617 9.37121 80.0625 9.60038 79.8466 9.89205C79.6345 10.1837 79.5284 10.5152 79.5284 10.8864C79.5284 11.197 79.6023 11.464 79.75 11.6875C79.9015 11.9072 80.0947 12.0909 80.3295 12.2386C80.5644 12.3826 80.8106 12.5019 81.0682 12.5966C81.3258 12.6875 81.5625 12.7614 81.7784 12.8182L82.9602 13.1364C83.2633 13.2159 83.6004 13.3258 83.9716 13.4659C84.3466 13.6061 84.7045 13.7973 85.0455 14.0398C85.3902 14.2784 85.6742 14.5852 85.8977 14.9602C86.1212 15.3352 86.233 15.7955 86.233 16.3409C86.233 16.9697 86.0682 17.5379 85.7386 18.0455C85.4129 18.553 84.9356 18.9564 84.3068 19.2557C83.6818 19.5549 82.9223 19.7045 82.0284 19.7045C81.1951 19.7045 80.4735 19.5701 79.8636 19.3011C79.2576 19.0322 78.7803 18.6572 78.4318 18.1761C78.0871 17.6951 77.892 17.1364 77.8466 16.5H79.3011C79.339 16.9394 79.4867 17.303 79.7443 17.5909C80.0057 17.875 80.3352 18.0871 80.733 18.2273C81.1345 18.3636 81.5663 18.4318 82.0284 18.4318C82.5663 18.4318 83.0492 18.3447 83.4773 18.1705C83.9053 17.9924 84.2443 17.7462 84.4943 17.4318C84.7443 17.1136 84.8693 16.7424 84.8693 16.3182C84.8693 15.9318 84.7614 15.6174 84.5455 15.375C84.3295 15.1326 84.0455 14.9356 83.6932 14.7841C83.3409 14.6326 82.9602 14.5 82.5511 14.3864L81.1193 13.9773C80.2102 13.7159 79.4905 13.3428 78.9602 12.858C78.4299 12.3731 78.1648 11.7386 78.1648 10.9545C78.1648 10.303 78.3409 9.73485 78.6932 9.25C79.0492 8.76136 79.5265 8.38258 80.125 8.11364C80.7273 7.84091 81.3996 7.70455 82.142 7.70455C82.892 7.70455 83.5587 7.83901 84.142 8.10795C84.7254 8.37311 85.1875 8.73674 85.5284 9.19886C85.8731 9.66098 86.0549 10.1856 86.0739 10.7727H84.7102ZM92.027 19.6818C91.1861 19.6818 90.4607 19.4962 89.8509 19.125C89.2448 18.75 88.777 18.2273 88.4474 17.5568C88.1217 16.8826 87.9588 16.0985 87.9588 15.2045C87.9588 14.3106 88.1217 13.5227 88.4474 12.8409C88.777 12.1553 89.2353 11.6212 89.8224 11.2386C90.4134 10.8523 91.1027 10.6591 91.8906 10.6591C92.3452 10.6591 92.794 10.7348 93.2372 10.8864C93.6804 11.0379 94.0838 11.2841 94.4474 11.625C94.8111 11.9621 95.1009 12.4091 95.3168 12.9659C95.5327 13.5227 95.6406 14.2083 95.6406 15.0227V15.5909H88.9134V14.4318H94.277C94.277 13.9394 94.1785 13.5 93.9815 13.1136C93.7884 12.7273 93.5118 12.4223 93.152 12.1989C92.7959 11.9754 92.3755 11.8636 91.8906 11.8636C91.3565 11.8636 90.8944 11.9962 90.5043 12.2614C90.1179 12.5227 89.8205 12.8636 89.6122 13.2841C89.4039 13.7045 89.2997 14.1553 89.2997 14.6364V15.4091C89.2997 16.0682 89.4134 16.6269 89.6406 17.0852C89.8717 17.5398 90.1918 17.8864 90.6009 18.125C91.0099 18.3598 91.4853 18.4773 92.027 18.4773C92.3793 18.4773 92.6974 18.428 92.9815 18.3295C93.2694 18.2273 93.5175 18.0758 93.7259 17.875C93.9342 17.6705 94.0952 17.4167 94.2088 17.1136L95.5043 17.4773C95.3679 17.9167 95.1387 18.303 94.8168 18.6364C94.4948 18.9659 94.0971 19.2235 93.6236 19.4091C93.1501 19.5909 92.6179 19.6818 92.027 19.6818ZM101.226 19.6818C100.408 19.6818 99.7031 19.4886 99.1122 19.1023C98.5213 18.7159 98.0668 18.1837 97.7486 17.5057C97.4304 16.8277 97.2713 16.053 97.2713 15.1818C97.2713 14.2955 97.4342 13.5133 97.7599 12.8352C98.0895 12.1534 98.5478 11.6212 99.1349 11.2386C99.7259 10.8523 100.415 10.6591 101.203 10.6591C101.817 10.6591 102.37 10.7727 102.862 11C103.355 11.2273 103.758 11.5455 104.072 11.9545C104.387 12.3636 104.582 12.8409 104.658 13.3864H103.317C103.214 12.9886 102.987 12.6364 102.635 12.3295C102.286 12.0189 101.817 11.8636 101.226 11.8636C100.703 11.8636 100.245 12 99.8509 12.2727C99.4607 12.5417 99.1558 12.9223 98.9361 13.4148C98.7202 13.9034 98.6122 14.4773 98.6122 15.1364C98.6122 15.8106 98.7183 16.3977 98.9304 16.8977C99.1463 17.3977 99.4493 17.786 99.8395 18.0625C100.233 18.339 100.696 18.4773 101.226 18.4773C101.574 18.4773 101.891 18.4167 102.175 18.2955C102.459 18.1742 102.699 18 102.896 17.7727C103.093 17.5455 103.233 17.2727 103.317 16.9545H104.658C104.582 17.4697 104.394 17.9337 104.095 18.3466C103.8 18.7557 103.408 19.0814 102.919 19.3239C102.434 19.5625 101.87 19.6818 101.226 19.6818ZM112.118 15.9318V10.7727H113.459V19.5H112.118V18.0227H112.027C111.822 18.4659 111.504 18.8428 111.072 19.1534C110.641 19.4602 110.095 19.6136 109.436 19.6136C108.891 19.6136 108.406 19.4943 107.982 19.2557C107.557 19.0133 107.224 18.6496 106.982 18.1648C106.739 17.6761 106.618 17.0606 106.618 16.3182V10.7727H107.959V16.2273C107.959 16.8636 108.137 17.3712 108.493 17.75C108.853 18.1288 109.311 18.3182 109.868 18.3182C110.201 18.3182 110.54 18.233 110.885 18.0625C111.233 17.892 111.525 17.6307 111.76 17.2784C111.999 16.9261 112.118 16.4773 112.118 15.9318ZM115.915 19.5V10.7727H117.21V12.0909H117.301C117.46 11.6591 117.748 11.3087 118.165 11.0398C118.581 10.7708 119.051 10.6364 119.574 10.6364C119.672 10.6364 119.795 10.6383 119.943 10.642C120.091 10.6458 120.203 10.6515 120.278 10.6591V12.0227C120.233 12.0114 120.129 11.9943 119.966 11.9716C119.807 11.9451 119.638 11.9318 119.46 11.9318C119.036 11.9318 118.657 12.0208 118.324 12.1989C117.994 12.3731 117.733 12.6155 117.54 12.9261C117.35 13.233 117.256 13.5833 117.256 13.9773V19.5H115.915ZM125.261 19.6818C124.42 19.6818 123.695 19.4962 123.085 19.125C122.479 18.75 122.011 18.2273 121.682 17.5568C121.356 16.8826 121.193 16.0985 121.193 15.2045C121.193 14.3106 121.356 13.5227 121.682 12.8409C122.011 12.1553 122.47 11.6212 123.057 11.2386C123.648 10.8523 124.337 10.6591 125.125 10.6591C125.58 10.6591 126.028 10.7348 126.472 10.8864C126.915 11.0379 127.318 11.2841 127.682 11.625C128.045 11.9621 128.335 12.4091 128.551 12.9659C128.767 13.5227 128.875 14.2083 128.875 15.0227V15.5909H122.148V14.4318H127.511C127.511 13.9394 127.413 13.5 127.216 13.1136C127.023 12.7273 126.746 12.4223 126.386 12.1989C126.03 11.9754 125.61 11.8636 125.125 11.8636C124.591 11.8636 124.129 11.9962 123.739 12.2614C123.352 12.5227 123.055 12.8636 122.847 13.2841C122.638 13.7045 122.534 14.1553 122.534 14.6364V15.4091C122.534 16.0682 122.648 16.6269 122.875 17.0852C123.106 17.5398 123.426 17.8864 123.835 18.125C124.244 18.3598 124.72 18.4773 125.261 18.4773C125.614 18.4773 125.932 18.428 126.216 18.3295C126.504 18.2273 126.752 18.0758 126.96 17.875C127.169 17.6705 127.33 17.4167 127.443 17.1136L128.739 17.4773C128.602 17.9167 128.373 18.303 128.051 18.6364C127.729 18.9659 127.331 19.2235 126.858 19.4091C126.384 19.5909 125.852 19.6818 125.261 19.6818Z" fill="#282828"/>
</svg>
